<svg width="29" height="30" viewBox="0 0 29 30" fill="none" xmlns="http://www.w3.org/2000/svg">
<g clip-path="url(#clip0_809_2675)">
<path d="M20.0131 0.869568C20.0799 0.869568 20.1467 0.869568 20.2173 0.869568C20.3813 2.89452 19.6083 4.40757 18.669 5.50326C17.7473 6.59139 16.4852 7.64674 14.4438 7.48661C14.3077 5.49065 15.0818 4.08983 16.0199 2.99665C16.8899 1.97787 18.4849 1.07131 20.0131 0.869568Z" fill="black"/>
<path d="M26.1925 21.9463C26.1925 21.9664 26.1925 21.9841 26.1925 22.003C25.6188 23.7405 24.8005 25.2296 23.8019 26.6115C22.8903 27.866 21.7732 29.5543 19.7785 29.5543C18.0549 29.5543 16.91 28.446 15.1435 28.4158C13.2749 28.3855 12.2473 29.3425 10.5388 29.5833C10.3434 29.5833 10.1479 29.5833 9.95629 29.5833C8.70172 29.4018 7.68925 28.4082 6.95164 27.513C4.77664 24.8677 3.0959 21.4507 2.7832 17.078C2.7832 16.6493 2.7832 16.2219 2.7832 15.7932C2.91559 12.6637 4.4362 10.1193 6.45738 8.88617C7.52407 8.23052 8.99046 7.67195 10.6233 7.92161C11.3231 8.03004 12.038 8.26961 12.6646 8.50665C13.2585 8.73487 14.0012 9.13961 14.7047 9.11817C15.1813 9.1043 15.6554 8.85591 16.1358 8.68065C17.5429 8.17252 18.9223 7.59 20.7405 7.86361C22.9256 8.19395 24.4765 9.16482 25.4347 10.6627C23.5863 11.8391 22.1249 13.6119 22.3746 16.6393C22.5965 19.3892 24.1953 20.9981 26.1925 21.9463Z" fill="black"/>
</g>
<defs>
<clipPath id="clip0_809_2675">
<rect width="28.7138" height="28.7138" fill="white" transform="translate(0.130371 0.869568)"/>
</clipPath>
</defs>
</svg>
