<svg width="336" height="200" viewBox="0 0 336 200" fill="none" xmlns="http://www.w3.org/2000/svg">
<g clip-path="url(#clip0_1157_3938)">
<path d="M91.36 171.108C125.264 169.752 163.574 169.188 219.943 182.823C251.471 190.446 260.844 181.789 287.599 174.276C311.445 167.576 326.802 147.353 323.088 133.22C319.337 118.949 298.375 119.801 286.232 97.1453C280.699 86.8275 283.322 80.9926 281.124 70.3994C274.178 36.8579 228.568 1.98929 200.812 9.27261C164.139 18.8913 176.844 97.2978 135.627 109.09C109.557 116.552 97.0465 88.7601 70.0198 102.107C56.6282 108.72 39.8949 118.431 35.8397 132.023C35.8397 132.023 27.0509 165.486 91.36 171.108Z" stroke="#067CC1" stroke-opacity="0.4" stroke-miterlimit="10" stroke-linecap="square" stroke-dasharray="4 4"/>
<path d="M72.4465 97.9567L55.7812 145.952L126.972 170.668L143.637 122.672L72.4465 97.9567Z" fill="#EBEBEB"/>
<path d="M143.634 122.659C143.634 122.659 143.356 122.844 142.755 123.075C142.108 123.353 141.229 123.676 140.166 124.139C137.855 125.063 134.572 126.311 130.596 127.883C122.413 131.027 111.271 135.28 98.8812 139.995L98.6038 140.088L98.4652 139.856C98.3727 139.672 98.234 139.487 98.0953 139.302C90.9756 127.929 84.5494 117.667 79.8338 110.131C77.5684 106.433 75.6729 103.428 74.3784 101.255C73.7774 100.238 73.2689 99.4526 72.899 98.8054C72.5754 98.2506 72.3905 97.927 72.4367 97.927C72.4367 97.927 72.6679 98.2044 73.0377 98.7129C73.4538 99.3139 73.9624 100.1 74.6096 101.071C75.9966 103.197 77.8921 106.156 80.2499 109.808C85.0117 117.297 91.5304 127.56 98.6963 138.839C98.835 139.024 98.9275 139.209 99.0662 139.394L98.6501 139.255C111.04 134.586 122.228 130.38 130.411 127.328C134.433 125.849 137.716 124.647 140.027 123.769C141.137 123.399 142.015 123.075 142.663 122.844C143.31 122.752 143.634 122.659 143.634 122.659Z" fill="#E0E0E0"/>
<path d="M55.7918 145.912C55.6994 145.727 63.3276 141.012 72.8513 135.372C82.3751 129.732 90.142 125.248 90.2345 125.433C90.3269 125.618 82.6987 130.333 73.175 135.973C63.6512 141.659 55.8843 146.097 55.7918 145.912Z" fill="#E0E0E0"/>
<path d="M114.091 133.061C114.276 133.015 117.281 141.382 120.841 151.737C124.401 162.139 127.128 170.599 126.943 170.645C126.758 170.691 123.753 162.324 120.194 151.968C116.68 141.567 113.952 133.107 114.091 133.061Z" fill="#E0E0E0"/>
<path d="M282.466 85.4925L212.045 97.4273L220.095 144.918L290.516 132.984L282.466 85.4925Z" fill="#F2F2F2"/>
<path d="M282.512 85.4915C282.512 85.4915 282.327 85.7689 281.958 86.2311C281.542 86.7397 280.987 87.4331 280.293 88.2652C278.768 90.0681 276.641 92.6107 274.052 95.7543C268.689 102.088 261.338 110.732 253.248 120.302L253.063 120.487L252.832 120.348C252.647 120.255 252.462 120.163 252.277 120.024C241.181 113.83 231.149 108.236 223.798 104.122C220.192 102.088 217.28 100.423 215.199 99.2214C214.228 98.6667 213.442 98.2044 212.888 97.8808C212.379 97.5572 212.102 97.3723 212.102 97.3723C212.102 97.3723 212.425 97.5109 212.934 97.7883C213.535 98.1119 214.321 98.528 215.292 99.0365C217.418 100.192 220.377 101.764 223.983 103.752C231.334 107.82 241.412 113.367 252.554 119.47C252.739 119.562 252.924 119.701 253.109 119.793L252.693 119.886C260.876 110.363 268.273 101.764 273.636 95.4769C276.317 92.4258 278.49 89.9294 280.016 88.1265C280.756 87.2944 281.357 86.6472 281.773 86.1387C282.281 85.7226 282.466 85.4915 282.512 85.4915Z" fill="#E0E0E0"/>
<path d="M220.101 144.895C219.962 144.803 224.123 137.406 229.486 128.346C234.803 119.285 239.241 112.027 239.426 112.119C239.565 112.212 235.404 119.608 230.041 128.669C224.724 137.73 220.286 144.988 220.101 144.895Z" fill="#E0E0E0"/>
<path d="M262.725 107.589C262.864 107.45 269.151 113.044 276.872 120.024C284.546 127.051 290.695 132.83 290.556 132.968C290.418 133.107 284.13 127.513 276.41 120.533C268.735 113.506 262.586 107.727 262.725 107.589Z" fill="#E0E0E0"/>
<path d="M265.687 20L253 52.2653L300.885 71.0918L313.572 38.8265L265.687 20Z" fill="#F2F2F2"/>
<path d="M313.576 39.2722C313.576 39.2722 313.391 39.3646 312.975 39.5033C312.513 39.6882 311.912 39.8731 311.172 40.1505C309.554 40.7053 307.289 41.4911 304.561 42.4157C298.921 44.3111 291.154 46.9461 282.601 49.8123L282.416 49.8585L282.324 49.6736C282.231 49.5349 282.185 49.3963 282.092 49.2576C277.562 41.3062 273.447 34.1408 270.442 28.8707C269.009 26.2819 267.807 24.1554 266.975 22.6761C266.605 21.9826 266.281 21.4279 266.05 20.9656C265.865 20.5958 265.726 20.3646 265.773 20.3646C265.773 20.3646 265.911 20.5495 266.142 20.9194C266.374 21.3354 266.743 21.8902 267.16 22.5836C268.038 24.0629 269.286 26.1432 270.766 28.732C273.817 33.9559 277.978 41.1213 282.555 49.0727C282.647 49.2113 282.693 49.35 282.786 49.4887L282.509 49.3963C291.108 46.5763 298.828 43.9875 304.515 42.1383C307.289 41.26 309.554 40.5203 311.172 40.0118C311.912 39.7807 312.513 39.5958 312.975 39.4571C313.345 39.3184 313.576 39.2722 313.576 39.2722Z" fill="#E0E0E0"/>
<path d="M253.012 52.7247C252.966 52.6323 258.282 49.5812 264.94 46.0216C271.597 42.4157 277.006 39.5958 277.099 39.7345C277.145 39.8269 271.828 42.8318 265.171 46.4376C258.514 49.9972 253.058 52.8172 253.012 52.7247Z" fill="#E0E0E0"/>
<path d="M293.142 45.5593C293.281 45.513 295.084 51.2916 297.211 58.5033C299.337 65.6688 300.956 71.5398 300.863 71.586C300.724 71.6323 298.921 65.8537 296.795 58.642C294.668 51.4303 293.05 45.5593 293.142 45.5593Z" fill="#E0E0E0"/>
<path d="M298 199.63C298 199.676 238.685 199.769 165.5 199.769C92.3152 199.723 33 199.676 33 199.63C33 199.584 92.3152 199.491 165.5 199.491C238.639 199.491 298 199.538 298 199.63Z" fill="#263238"/>
<path d="M46.0827 73.5645L52.6938 71.2068L49.8737 67.4161C49.8275 67.1849 49.6888 66.3066 49.6888 64.8735C49.6888 64.4574 49.7812 63.9951 49.9199 63.5791C50.1048 63.0706 50.336 62.4234 50.6134 62.0998C50.937 61.7299 50.6134 61.129 50.1511 61.2676C49.6888 61.4063 48.8104 62.4234 48.4405 63.9951C48.0244 65.5669 46.9611 63.2555 46.5912 62.4234C46.1752 61.5912 44.8344 59.0949 44.4646 59.0024C43.956 58.91 43.7249 59.4185 44.141 60.2506C44.557 61.0827 45.6666 63.6253 45.2043 63.8102C44.742 63.9951 42.754 59.7421 42.754 59.7421C42.754 59.7421 42.4766 58.7713 41.9681 58.9562C40.9972 59.326 43.4937 63.7178 43.7249 64.0876C43.9098 64.365 43.4013 64.5961 43.2626 64.2725C43.0776 63.9489 41.3671 59.9732 40.3962 60.3431C39.6565 60.6204 42.3842 63.9489 42.2917 64.9659C42.1992 65.983 40.4887 62.2384 39.7952 62.5158C39.5178 62.6083 39.3329 62.747 40.6736 64.781C41.1359 65.4745 41.9218 66.4453 42.754 67.5085L46.0827 73.5645Z" fill="#FFBE9D"/>
<path d="M105.582 81.6545C105.582 81.6545 102.3 74.0268 100.081 70.3285C97.954 66.8613 95.1338 66.2603 93.6544 66.1679C92.5449 65.8443 91.7589 65.798 91.7589 65.798L79.5075 65.7056C79.5075 65.7056 75.7165 65.5207 72.2029 68.3869C71.6482 68.8491 67.3948 73.7494 61.8008 80.7299L51.9535 70.0973L46.082 73.5645C46.082 73.5645 52.462 95.5231 60.4139 93.9976C65.1295 93.1192 68.828 89.7908 68.828 89.7908L75.0693 84.8443L75.208 85.6764C75.3467 86.6934 75.6703 88.3114 75.9015 89.3285C76.6412 92.472 77.0573 96.5864 75.4391 99.3139C75.4391 99.3139 73.22 101.024 74.9768 102.873H98.0002C98.0002 102.873 101.283 100.654 98.2776 98.2044L96.4283 93.5353L97.6304 87.8491L98.0927 85.5839L100.127 89.0511C100.127 89.0511 104.149 94.09 108.31 93.4891C113.349 92.7494 116.215 83.5961 111.685 71.5304L106.229 73.1946L105.582 81.6545Z" fill="#067CC1"/>
<g opacity="0.4">
<path d="M46.082 73.5645L46.6368 75.4136L53.1555 71.438L51.9072 70.1436L46.082 73.5645Z" fill="black"/>
</g>
<g opacity="0.2">
<path d="M75.4395 99.3139C77.4275 99.0365 79.0918 97.927 80.2938 96.309C81.4959 94.691 82.0044 92.6107 81.6808 90.6691C81.5883 89.9757 81.3109 89.236 80.7099 88.8662C79.9702 88.4039 78.9993 88.635 78.2134 88.219C77.6124 87.8954 77.2888 87.2019 76.8265 86.6472C76.4104 86.0925 75.8094 85.2141 75.1621 85.4915C75.1621 85.4915 75.948 89.5596 76.2717 91.3625C76.5953 93.1654 76.734 95.7542 76.0867 97.6959C75.948 98.2968 75.7169 98.8516 75.4395 99.3139Z" fill="black"/>
</g>
<path d="M60.8293 84.4744C60.7368 84.4744 60.8755 83.5961 61.1529 82.5791C61.4303 81.562 61.6615 80.7299 61.7539 80.7299C61.8464 80.7299 61.7077 81.6083 61.4303 82.6253C61.1067 83.6886 60.8755 84.5207 60.8293 84.4744Z" fill="#263238"/>
<path d="M62.3107 83.4574C62.2645 83.4574 62.0796 82.8564 61.8947 82.1168C61.756 81.3771 61.6635 80.7299 61.756 80.7299C61.8022 80.7299 61.9871 81.3309 62.1721 82.0705C62.3107 82.8564 62.357 83.4574 62.3107 83.4574Z" fill="#263238"/>
<path d="M106.229 56.5523L97.8613 70.1436L104.472 71.9465L111.777 60.7129L106.229 56.5523Z" fill="#455A64"/>
<path d="M105.722 68.1095L105.999 70.0973L107.155 71.5766L107.294 72.8248L111.501 71.5304L109.79 65.5207C109.79 65.5207 110.068 63.764 109.975 63.0706L108.819 64.5961L108.496 62.0998L106.138 60.2044C105.861 60.0195 105.537 60.0657 105.352 60.3431C105.167 60.5742 105.213 60.8978 105.398 61.0827L107.294 62.747L107.432 64.8272L106.046 63.5328C105.907 63.3942 105.722 63.3017 105.583 63.3017L103.688 62.9319C103.41 62.8856 103.133 63.0706 103.087 63.3479C103.04 63.5791 103.225 63.8102 103.457 63.8564L105.213 64.4112L106.97 66.1679L105.26 65.5207L102.948 65.8443C102.717 65.8905 102.578 66.0754 102.578 66.3066C102.578 66.5839 102.809 66.7689 103.04 66.7689L104.52 66.6764L105.398 66.9538L103.41 67.4623C103.225 67.5085 103.087 67.6934 103.087 67.8783C103.087 68.1095 103.318 68.2944 103.503 68.2482L105.722 68.1095Z" fill="#FFBE9D"/>
<g opacity="0.4">
<path d="M106.277 73.1484L106.092 75.3674L112.472 73.6107L111.732 71.4842L106.277 73.1484Z" fill="black"/>
</g>
<path d="M97.8629 70.1436C97.8629 70.1436 97.3081 69.3577 97.3543 69.2652C97.4005 69.1265 105.306 56.09 105.306 56.09L106.231 56.5985L97.8629 70.1436Z" fill="#263238"/>
<path d="M108.311 59.9732C108.45 59.8345 108.727 59.927 108.773 60.1119C108.819 60.2968 108.635 60.528 108.45 60.4817C108.265 60.4355 108.172 60.1581 108.311 59.9732Z" fill="#263238"/>
<path d="M103.087 76.708C103.087 76.708 103.04 76.8467 102.856 77.0316C102.671 77.2165 102.347 77.4477 101.838 77.5864C101.33 77.7251 100.683 77.7251 99.9892 77.5864C99.2957 77.4939 98.4636 77.2628 97.6314 77.4939C96.753 77.6788 95.967 78.2336 95.1349 78.8808C94.3027 79.528 93.4243 80.3139 92.2685 80.6837C91.6675 80.8686 91.0665 80.9148 90.4192 80.8224C89.772 80.7299 89.171 80.545 88.57 80.3139C87.3679 79.8516 86.2122 79.1582 84.9177 78.6959C84.2704 78.4647 83.6232 78.326 82.9759 78.2798C82.3287 78.2336 81.6815 78.326 81.0342 78.4647C79.786 78.7421 78.6302 79.1582 77.4281 79.3893C75.0703 79.8978 72.8512 79.3893 71.2331 78.5572C69.615 77.7251 68.5979 76.6156 67.9969 75.7835C67.3959 74.9513 67.2109 74.4428 67.2109 74.4428C67.2572 74.4428 67.4421 74.9513 68.0431 75.7372C68.6441 76.5231 69.6612 77.5864 71.2793 78.4185C72.8512 79.2044 75.0241 79.7129 77.3357 79.2044C78.4915 78.9732 79.6473 78.5109 80.9417 78.2336C81.589 78.0949 82.2362 78.0024 82.9297 78.0487C83.6232 78.0949 84.2704 78.2798 84.9177 78.5109C86.2122 78.9732 87.3679 79.6667 88.57 80.129C89.171 80.3601 89.772 80.545 90.373 80.6375C90.974 80.7299 91.575 80.6837 92.1298 80.4988C93.2394 80.1752 94.1178 79.3893 94.9499 78.7883C95.7821 78.1411 96.6143 77.5864 97.5389 77.4015C98.4636 77.2165 99.2957 77.4477 99.9892 77.5401C100.683 77.6788 101.284 77.6788 101.792 77.5864C102.301 77.4939 102.624 77.2628 102.809 77.1241C102.994 76.8005 103.087 76.708 103.087 76.708Z" fill="#FAFAFA"/>
<path d="M105.722 85.4915C105.675 85.4915 105.583 84.5669 105.537 83.4574C105.49 82.3017 105.537 81.4233 105.583 81.3771C105.629 81.3771 105.722 82.3017 105.768 83.4112C105.814 84.5669 105.768 85.4915 105.722 85.4915Z" fill="#263238"/>
<path d="M91.2969 170.506C91.4818 171.292 96.1974 197.735 96.1974 197.735L103.41 197.18L102.069 170.182L91.2969 170.506Z" fill="#FFBE9D"/>
<path d="M103.639 197.642V196.903L95.918 197.041L95.9642 199.538H96.4265C98.5532 199.63 107.198 199.769 108.585 199.307C110.204 198.844 103.639 197.642 103.639 197.642Z" fill="#067CC1"/>
<g opacity="0.3">
<path d="M98.7381 199.445C98.5994 198.844 98.2295 198.29 97.721 197.966C97.2125 197.596 96.5652 197.411 95.918 197.504L95.9642 199.491L98.7381 199.445Z" fill="black"/>
</g>
<g opacity="0.3">
<path d="M106.829 198.336C106.829 198.336 109.141 198.891 108.863 199.26C108.586 199.63 99.8483 199.769 95.9648 199.538V199.399L106.182 199.307C106.182 199.26 106.413 198.382 106.829 198.336Z" fill="black"/>
</g>
<path d="M95.873 199.353C95.873 199.353 95.9193 199.353 96.0117 199.353C96.1042 199.353 96.2429 199.353 96.3816 199.353C96.7515 199.353 97.2138 199.353 97.7685 199.399C98.9243 199.399 100.589 199.399 102.392 199.399C104.195 199.353 105.813 199.307 106.969 199.26C107.523 199.214 107.986 199.214 108.356 199.168C108.494 199.168 108.633 199.168 108.725 199.122C108.633 199.122 108.494 199.122 108.356 199.122C107.986 199.122 107.523 199.168 106.969 199.168C105.813 199.214 104.149 199.26 102.392 199.307C100.589 199.353 98.9706 199.353 97.8148 199.353C97.26 199.353 96.7977 199.353 96.4278 199.353C96.2891 199.353 96.1504 199.353 96.058 199.353C95.9193 199.353 95.873 199.353 95.873 199.353Z" fill="#263238"/>
<path d="M106.183 199.399C106.229 199.399 106.229 199.075 106.414 198.798C106.599 198.474 106.876 198.336 106.876 198.29C106.876 198.29 106.553 198.428 106.322 198.752C106.137 199.029 106.183 199.399 106.183 199.399Z" fill="#263238"/>
<path d="M103.917 198.336C103.917 198.336 104.055 198.243 104.148 198.058C104.24 197.873 104.333 197.735 104.286 197.735C104.286 197.735 104.148 197.827 104.055 198.012C103.963 198.197 103.87 198.336 103.917 198.336Z" fill="#263238"/>
<path d="M103.27 198.058C103.27 198.058 103.408 198.012 103.547 197.873C103.686 197.781 103.778 197.642 103.732 197.642C103.732 197.642 103.593 197.689 103.454 197.827C103.362 197.92 103.27 198.058 103.27 198.058Z" fill="#263238"/>
<path d="M102.855 197.411C102.855 197.458 103.04 197.458 103.272 197.458C103.503 197.458 103.688 197.458 103.688 197.411C103.688 197.365 103.503 197.365 103.272 197.365C103.04 197.365 102.855 197.365 102.855 197.411Z" fill="#263238"/>
<path d="M102.715 196.903C102.715 196.903 102.9 196.996 103.177 196.996C103.455 196.996 103.639 196.949 103.639 196.949C103.639 196.903 103.455 196.949 103.177 196.949C102.946 196.949 102.715 196.903 102.715 196.903Z" fill="#263238"/>
<path d="M104.148 197.735C104.148 197.735 104.333 197.781 104.657 197.735C104.796 197.735 104.981 197.689 105.166 197.596C105.258 197.55 105.35 197.55 105.443 197.457C105.489 197.411 105.535 197.365 105.582 197.319C105.582 197.273 105.582 197.18 105.489 197.134C105.027 196.903 104.565 197.18 104.38 197.411C104.287 197.55 104.241 197.642 104.241 197.735C104.241 197.827 104.241 197.873 104.241 197.873C104.241 197.873 104.287 197.689 104.472 197.457C104.565 197.365 104.703 197.273 104.888 197.18C105.073 197.134 105.304 197.134 105.489 197.226C105.582 197.273 105.535 197.365 105.443 197.411C105.35 197.457 105.258 197.504 105.166 197.504C104.981 197.55 104.796 197.596 104.657 197.642C104.333 197.689 104.148 197.735 104.148 197.735Z" fill="#263238"/>
<path d="M104.288 197.735C104.288 197.735 104.381 197.642 104.335 197.411C104.335 197.319 104.288 197.18 104.196 197.088C104.104 196.995 104.011 196.856 103.78 196.856C103.687 196.856 103.595 196.995 103.641 197.088C103.641 197.18 103.687 197.226 103.734 197.273C103.826 197.365 103.872 197.457 103.965 197.55C104.104 197.689 104.242 197.735 104.288 197.735C104.242 197.735 104.15 197.642 104.011 197.504C103.965 197.411 103.872 197.319 103.78 197.226C103.687 197.134 103.641 196.949 103.78 196.949C103.919 196.949 104.011 197.041 104.104 197.134C104.196 197.226 104.242 197.319 104.242 197.411C104.288 197.642 104.242 197.735 104.288 197.735Z" fill="#263238"/>
<path d="M95.9648 197.411C95.9648 197.411 96.196 197.365 96.5196 197.411C96.8432 197.457 97.3518 197.55 97.7679 197.873C98.184 198.151 98.4614 198.567 98.5538 198.891C98.6925 199.214 98.6925 199.399 98.6925 199.399C98.6925 199.399 98.6925 199.353 98.6925 199.26C98.6925 199.168 98.6463 199.029 98.6 198.891C98.5076 198.567 98.2302 198.151 97.8141 197.827C97.3518 197.504 96.8895 197.411 96.5196 197.365C96.3347 197.365 96.196 197.365 96.1035 197.365C96.0111 197.411 95.9648 197.411 95.9648 197.411Z" fill="#263238"/>
<path d="M99.7109 198.706C99.7109 198.706 100.219 198.799 100.82 198.799C101.422 198.799 101.93 198.706 101.93 198.706C101.93 198.659 101.422 198.706 100.82 198.706C100.219 198.706 99.7109 198.706 99.7109 198.706Z" fill="#263238"/>
<path d="M98.1855 198.752C98.1855 198.752 98.2318 198.844 98.278 198.937C98.3242 199.029 98.3705 199.122 98.3705 199.122C98.4167 199.122 98.4167 199.029 98.3242 198.891C98.3242 198.798 98.2318 198.706 98.1855 198.752Z" fill="#263238"/>
<path d="M97.6289 198.105C97.6289 198.105 97.6751 198.197 97.7214 198.29C97.8138 198.382 97.8601 198.428 97.9063 198.382C97.9063 198.382 97.8601 198.29 97.8138 198.197C97.7214 198.105 97.6289 198.058 97.6289 198.105Z" fill="#263238"/>
<path d="M96.7969 197.827C96.7969 197.873 96.8893 197.827 97.028 197.873C97.1205 197.92 97.213 197.966 97.2592 197.966C97.2592 197.966 97.213 197.873 97.0743 197.827C96.8893 197.735 96.7969 197.781 96.7969 197.827Z" fill="#263238"/>
<path d="M96.2422 197.689C96.2422 197.689 96.2884 197.735 96.3346 197.782C96.3809 197.782 96.4733 197.782 96.4733 197.782C96.4733 197.782 96.4271 197.735 96.3809 197.689C96.2884 197.642 96.2422 197.642 96.2422 197.689Z" fill="#263238"/>
<path d="M72.897 168.287C72.8508 169.119 69.8457 194.869 69.8457 194.869L76.9192 196.44L83.4378 170.229L72.897 168.287Z" fill="#FFBE9D"/>
<path d="M77.2429 197.134L77.3816 196.394L69.8458 194.73L69.291 197.18L69.7533 197.319C71.7875 197.873 80.1555 200.092 81.6349 200C83.2992 199.908 77.2429 197.134 77.2429 197.134Z" fill="#067CC1"/>
<g opacity="0.3">
<path d="M72.0643 197.689C72.0643 197.088 71.8793 196.487 71.417 195.978C71.0009 195.516 70.3999 195.192 69.7989 195.1L69.3828 197.041L72.0643 197.689Z" fill="black"/>
</g>
<g opacity="0.3">
<path d="M80.201 198.567C80.201 198.567 82.2815 199.676 81.9578 199.954C81.588 200.231 73.0813 198.29 69.3828 197.134L69.429 196.995L79.3689 199.307C79.3226 199.307 79.7387 198.521 80.201 198.567Z" fill="black"/>
</g>
<path d="M69.291 196.949C69.291 196.949 69.3372 196.949 69.4297 196.995C69.5222 197.041 69.6609 197.041 69.7996 197.088C70.1694 197.18 70.6317 197.319 71.1403 197.457C72.2961 197.735 73.868 198.151 75.6248 198.567C77.3816 198.983 78.9534 199.307 80.1092 199.491C80.664 199.584 81.1263 199.676 81.4962 199.769C81.6349 199.815 81.7736 199.815 81.866 199.815C81.9585 199.815 82.0047 199.815 82.0047 199.815C82.0047 199.815 81.9585 199.815 81.866 199.769C81.7736 199.723 81.6349 199.723 81.4962 199.676C81.1263 199.584 80.664 199.491 80.1092 199.399C78.9534 199.168 77.3816 198.844 75.6248 198.428C73.868 198.012 72.2961 197.642 71.1403 197.365C70.5855 197.226 70.1694 197.134 69.7996 197.041C69.6609 196.995 69.5222 196.995 69.4297 196.949C69.3372 196.995 69.291 196.949 69.291 196.949Z" fill="#263238"/>
<path d="M79.3242 199.445C79.3704 199.445 79.4167 199.168 79.6941 198.891C79.9715 198.613 80.2951 198.521 80.2488 198.521C80.2488 198.521 79.879 198.567 79.6016 198.844C79.3242 199.122 79.278 199.445 79.3242 199.445Z" fill="#263238"/>
<path d="M77.3359 197.873C77.3359 197.873 77.4746 197.781 77.6133 197.642C77.752 197.504 77.8445 197.365 77.8445 197.365C77.8445 197.365 77.7058 197.457 77.5671 197.596C77.4284 197.735 77.3359 197.873 77.3359 197.873Z" fill="#263238"/>
<path d="M76.7812 197.457C76.7812 197.457 76.9199 197.411 77.0586 197.365C77.1973 197.273 77.336 197.226 77.2898 197.18C77.2898 197.18 77.1511 197.226 77.0124 197.273C76.9199 197.365 76.7812 197.457 76.7812 197.457Z" fill="#263238"/>
<path d="M76.5508 196.718C76.5508 196.764 76.7357 196.81 76.9206 196.856C77.1518 196.903 77.3367 196.949 77.3367 196.903C77.3367 196.856 77.1518 196.81 76.9669 196.764C76.7357 196.718 76.5508 196.672 76.5508 196.718Z" fill="#263238"/>
<path d="M76.5508 196.209C76.5508 196.209 76.6895 196.348 76.9669 196.44C77.198 196.533 77.4292 196.487 77.4292 196.487C77.4292 196.44 77.2443 196.44 77.0131 196.348C76.7357 196.302 76.5508 196.209 76.5508 196.209Z" fill="#263238"/>
<path d="M77.7051 197.365C77.7051 197.365 77.89 197.457 78.1674 197.457C78.3061 197.457 78.491 197.504 78.7222 197.457C78.8146 197.457 78.9071 197.457 79.0458 197.411C79.092 197.411 79.1845 197.365 79.1845 197.319C79.2307 197.273 79.1845 197.18 79.1383 197.134C78.7222 196.81 78.2136 196.949 77.9825 197.134C77.8438 197.226 77.7975 197.319 77.7513 197.411C77.7051 197.504 77.7051 197.55 77.7051 197.55C77.7051 197.55 77.7975 197.365 78.0287 197.226C78.1212 197.134 78.3061 197.088 78.491 197.088C78.6759 197.088 78.9071 197.134 79.0458 197.273C79.092 197.365 79.0458 197.411 78.9533 197.457C78.8609 197.504 78.7684 197.504 78.6759 197.504C78.491 197.504 78.3061 197.504 78.1674 197.504C77.9362 197.365 77.7513 197.319 77.7051 197.365Z" fill="#263238"/>
<path d="M77.8451 197.411C77.8451 197.411 77.9376 197.319 77.9838 197.134C77.9838 197.041 77.9838 196.903 77.9376 196.764C77.8914 196.625 77.7989 196.487 77.5677 196.44C77.4753 196.44 77.3828 196.533 77.3828 196.625C77.3828 196.718 77.3828 196.764 77.429 196.856C77.4753 196.995 77.5215 197.088 77.614 197.18C77.7064 197.319 77.7989 197.365 77.8451 197.411C77.7989 197.365 77.7064 197.273 77.614 197.134C77.5677 197.041 77.5215 196.949 77.4753 196.81C77.429 196.718 77.429 196.533 77.5677 196.533C77.7064 196.533 77.7989 196.672 77.8451 196.81C77.8914 196.903 77.9376 197.041 77.9376 197.134C77.8914 197.273 77.8451 197.365 77.8451 197.411Z" fill="#263238"/>
<path d="M69.8457 195.1C69.8457 195.1 70.0769 195.146 70.4005 195.238C70.7241 195.331 71.1864 195.562 71.51 195.978C71.8337 196.348 72.0186 196.81 72.0648 197.134C72.1111 197.457 72.0648 197.642 72.1111 197.642C72.1111 197.642 72.1111 197.596 72.1573 197.504C72.1573 197.411 72.1573 197.273 72.1573 197.088C72.1111 196.764 71.9724 196.302 71.6487 195.886C71.2789 195.47 70.8166 195.238 70.4929 195.146C70.308 195.1 70.1693 195.054 70.0769 195.054C69.8919 195.1 69.8457 195.1 69.8457 195.1Z" fill="#263238"/>
<path d="M73.1758 197.226C73.1758 197.226 73.6381 197.411 74.2391 197.596C74.8401 197.735 75.3487 197.781 75.3487 197.781C75.3487 197.735 74.8401 197.689 74.2391 197.55C73.6381 197.365 73.1758 197.226 73.1758 197.226Z" fill="#263238"/>
<path d="M71.6953 196.903C71.6953 196.903 71.6953 196.995 71.7415 197.134C71.7878 197.226 71.7878 197.365 71.7878 197.365C71.834 197.365 71.834 197.272 71.834 197.134C71.7878 196.995 71.7415 196.903 71.6953 196.903Z" fill="#263238"/>
<path d="M71.2793 196.163C71.2793 196.163 71.2793 196.255 71.3718 196.348C71.418 196.44 71.5105 196.487 71.5105 196.487C71.5105 196.487 71.5105 196.394 71.418 196.302C71.3718 196.209 71.3255 196.117 71.2793 196.163Z" fill="#263238"/>
<path d="M70.5859 195.655C70.5859 195.701 70.6784 195.701 70.7709 195.747C70.8633 195.793 70.9558 195.886 70.9558 195.886C70.9558 195.886 70.9558 195.747 70.8171 195.701C70.6784 195.655 70.5859 195.655 70.5859 195.655Z" fill="#263238"/>
<path d="M70.0312 195.423C70.0312 195.423 70.0313 195.47 70.1237 195.516C70.1699 195.563 70.2162 195.563 70.2624 195.563C70.2624 195.563 70.2624 195.516 70.1699 195.47C70.1237 195.423 70.0312 195.377 70.0312 195.423Z" fill="#263238"/>
<path d="M99.435 53.6401C99.2501 53.0854 98.7878 52.6693 98.5566 52.1608C98.233 51.3749 98.4641 50.4504 98.5566 49.572C98.6491 48.6937 98.4641 47.6766 97.6782 47.3068C97.3546 47.1681 96.9847 47.1681 96.6611 46.9832C96.0601 46.6134 96.0601 45.735 96.0139 44.9954C95.9676 44.5331 95.8752 44.0246 95.644 43.6085C95.6902 43.6085 95.7365 43.5623 95.7827 43.5623C96.7998 43.2849 97.8631 43.8859 98.1405 44.718C98.2792 45.1341 98.2792 45.5963 98.048 45.8737C97.8169 46.1973 97.4008 46.2898 97.1696 46.1511C96.8923 46.0124 96.7536 45.6888 96.846 45.4577C96.8923 45.2265 97.1696 45.1341 97.3546 45.1803C97.5395 45.1803 97.6782 45.319 97.7244 45.3652C97.7707 45.4577 97.7707 45.5039 97.8169 45.5039C97.8169 45.5039 97.8169 45.4577 97.8169 45.319C97.7707 45.2265 97.632 45.0878 97.447 45.0416C97.3546 45.0416 97.2159 45.0416 97.0772 45.0878C96.9385 45.1341 96.7998 45.2265 96.7536 45.4114C96.6611 45.735 96.7998 46.1511 97.1234 46.336C97.4933 46.5209 98.0018 46.3822 98.2792 46.0124C98.6028 45.6426 98.6028 45.0878 98.4179 44.6255C98.0943 43.7472 97.0772 43.1 95.9676 43.2387C96.1988 42.8689 96.245 42.4066 96.1063 41.9905C95.9214 41.4358 95.5053 41.1122 95.043 40.9272C94.5807 40.7423 94.1184 40.7423 93.7023 40.8348C93.2862 40.9272 92.9163 41.1122 92.6389 41.2971C92.3615 41.482 92.1304 41.7131 91.8992 41.8518C91.6681 41.9905 91.4831 42.083 91.2982 42.083C90.9284 42.1292 90.7434 41.9443 90.7434 41.9443C90.7434 41.9443 90.8821 42.1754 91.2982 42.1754C91.4831 42.1754 91.7605 42.083 91.9917 41.9443C92.2229 41.8056 92.5002 41.5744 92.7776 41.4358C93.3324 41.1122 94.1646 40.7886 94.9968 41.1122C95.4128 41.2508 95.7827 41.5744 95.8752 42.0367C96.0138 42.4528 95.9214 42.9613 95.5515 43.2849C95.3204 42.8689 94.9968 42.499 94.5344 42.2679C93.6098 41.7594 92.2229 41.9905 91.7605 42.9613L84.1785 40.3725C83.2539 39.5404 81.867 39.3092 80.7112 39.6791C80.6649 39.6791 80.6187 39.6791 80.5725 39.6328C80.2026 39.5866 79.7403 39.6328 79.278 39.864C78.8157 40.0951 78.3996 40.5112 77.9835 40.9735C77.7523 41.2046 77.5212 41.4358 77.2438 41.5744C77.1976 41.6207 77.1513 41.6207 77.1051 41.6207C76.7815 41.6669 76.4116 41.6669 76.088 41.6669C75.4408 41.5282 74.7935 41.1584 74.0076 41.0659C73.5915 41.0197 73.1292 41.0197 72.7131 41.1584C72.297 41.2971 71.8809 41.5282 71.5573 41.898C71.2337 42.2679 71.0487 42.7302 71.0487 43.2387C71.0487 43.6085 71.1412 43.9321 71.2337 44.3019C71.0487 44.7642 71.0025 45.2265 71.0025 45.735C71.0487 46.3822 71.2337 47.0294 71.2337 47.6766C71.0487 47.8153 70.8638 47.9078 70.6327 48.0002C70.2166 48.1389 69.8005 48.1852 69.3844 48.3238C68.5522 48.6474 67.9975 49.3409 67.7663 50.0805C67.5351 50.7277 67.5814 51.5136 67.9512 51.9759C67.7663 52.808 67.9512 53.7326 68.506 54.426C68.8759 54.8883 69.3844 55.2119 69.708 55.7204C70.2166 56.5063 70.1241 57.4771 70.2628 58.4017C70.4015 59.3263 70.91 60.3433 71.8347 60.3895C72.5744 60.4358 73.2216 59.8348 73.9613 59.881C74.9784 59.9735 75.4408 61.2216 76.0418 62.0538C76.7815 63.117 78.1684 63.718 79.4629 63.5331C80.3875 63.3944 81.3584 62.8859 82.283 63.1633C83.4388 63.4406 84.1323 64.8275 85.3343 64.9662C86.2127 65.1049 87.0449 64.5039 87.6921 63.9029C88.3394 63.3019 89.0329 62.6085 89.9113 62.4698C90.9746 62.2849 91.9917 62.9321 93.055 63.0708C94.442 63.2557 95.8752 62.5161 96.5686 61.3141C97.1696 60.2508 97.1696 58.9564 97.6782 57.8932C98.048 57.1535 98.6491 56.5988 99.0651 55.9053C99.3888 55.2581 99.7124 54.426 99.435 53.6401ZM69.0145 50.2192C68.8296 50.173 68.7372 50.2192 68.7372 50.2192C68.7372 50.2192 68.8296 50.2192 68.9221 50.2654C68.8759 50.3117 68.8296 50.3117 68.7834 50.3579C68.3673 50.7277 68.0437 51.19 67.905 51.7448C67.6738 51.3287 67.6738 50.7277 67.8588 50.173C68.0899 49.5258 68.6447 48.8786 69.3844 48.6012C69.7543 48.4625 70.1703 48.4163 70.5864 48.2776C70.7714 48.2314 70.9563 48.1389 71.095 48.0465C71.0487 48.2776 71.0025 48.555 70.8638 48.7399C70.5402 49.4796 69.708 49.7569 69.0145 50.2192ZM74.1925 41.7131C72.9442 41.898 71.8809 42.7764 71.3261 43.8859C71.2799 43.6547 71.2337 43.4698 71.2337 43.2387C71.2337 42.7764 71.3724 42.3603 71.6498 42.083C72.2045 41.4358 73.1292 41.2046 73.9151 41.3433C74.3312 41.3895 74.7473 41.5282 75.1634 41.6669C74.886 41.6669 74.5161 41.6669 74.1925 41.7131ZM78.0297 41.3895C77.9373 41.4358 77.8448 41.482 77.7523 41.482C77.891 41.3433 78.0297 41.2046 78.1222 41.1122C78.5383 40.6499 78.9081 40.1876 79.3242 40.0027C79.7403 39.8178 80.1102 39.7715 80.4338 39.7715C80.2488 39.864 80.0639 39.9564 79.879 40.0489C79.2318 40.465 78.7232 41.0659 78.0297 41.3895Z" fill="#263238"/>
<path d="M94.4421 57.292C94.8119 55.0268 94.6732 51.2822 94.4883 48.2311C94.3034 45.5037 91.8993 43.4234 89.1717 43.7007L81.2198 44.5329C80.3876 44.6253 79.7404 45.3187 79.7866 46.1509L80.6188 65.6594C79.5092 65.6594 78.7695 65.6594 78.7695 65.6594V69.1728C78.7695 73.1947 82.052 76.4769 86.0741 76.4769C90.0963 76.4769 93.3787 73.1947 93.3787 69.1728V66.1217C93.3787 66.1217 91.4832 65.5207 90.3275 65.5669C90.2812 65.5669 90.1425 65.5669 90.0501 65.5669C90.0501 63.764 90.1888 62.3771 90.1888 62.3771C90.1888 62.3771 93.7486 61.8686 94.4421 57.292Z" fill="#FFBE9D"/>
<path d="M93.3316 51.1898C93.3316 51.5134 93.1004 51.7445 92.7768 51.7908C92.4532 51.7908 92.1758 51.5596 92.1758 51.2822C92.1758 50.9586 92.4069 50.7275 92.7306 50.6813C93.0542 50.635 93.3316 50.8662 93.3316 51.1898Z" fill="#263238"/>
<path d="M93.7023 50.1728C93.6098 50.2652 93.1937 49.9416 92.5465 49.9416C91.8992 49.9416 91.4369 50.2652 91.3907 50.1728C91.3445 50.1265 91.4369 49.9878 91.6218 49.8491C91.8068 49.7105 92.1766 49.5718 92.5465 49.5718C92.9626 49.5718 93.2862 49.7105 93.4711 49.8491C93.656 49.9878 93.7485 50.1265 93.7023 50.1728Z" fill="#263238"/>
<path d="M87.1363 51.1898C87.1363 51.5134 86.9051 51.7445 86.5815 51.7908C86.2579 51.7908 85.9805 51.5596 85.9805 51.2822C85.9805 50.9586 86.2116 50.7275 86.5353 50.6813C86.8589 50.635 87.1363 50.8662 87.1363 51.1898Z" fill="#263238"/>
<path d="M87.507 50.2652C87.4145 50.3577 86.9984 50.0341 86.3512 50.0341C85.7039 50.0341 85.2416 50.3577 85.1954 50.2652C85.1491 50.219 85.2416 50.0803 85.4265 49.9416C85.6115 49.8029 85.9813 49.6642 86.3512 49.6642C86.7673 49.6642 87.0909 49.8029 87.2758 49.9416C87.4607 50.1265 87.507 50.2652 87.507 50.2652Z" fill="#263238"/>
<path d="M89.7727 54.9805C89.7727 54.9343 90.1425 54.8881 90.7898 54.7956C90.9284 54.7956 91.1134 54.7494 91.1134 54.6569C91.1596 54.5183 91.0671 54.3796 91.0209 54.1947C90.8822 53.8248 90.6973 53.4088 90.5586 52.9465C89.9114 51.1898 89.4028 49.7567 89.4953 49.7105C89.5877 49.6642 90.1425 51.0973 90.836 52.854C90.9747 53.2701 91.1596 53.6861 91.2983 54.1022C91.3445 54.2871 91.4832 54.472 91.3908 54.7494C91.3445 54.8881 91.2058 54.9805 91.1134 54.9805C91.0209 55.0268 90.9284 55.0268 90.836 55.0268C90.1887 55.0268 89.7727 55.0268 89.7727 54.9805Z" fill="#263238"/>
<path d="M90.2348 62.4696C90.2348 62.4696 87.1372 62.6545 84.0859 60.8516C84.0859 60.8516 85.5654 63.9951 90.1423 63.5791L90.2348 62.4696Z" fill="#EB996E"/>
<path d="M89.4956 56.5061C89.2645 56.1825 88.8484 56.0438 88.4786 56.09C88.2012 56.1363 87.9238 56.2287 87.7388 56.4599C87.5539 56.691 87.5539 57.0146 87.6926 57.1995C87.8775 57.4307 88.2012 57.4769 88.5248 57.4307C88.8484 57.3382 89.0796 57.1533 89.3107 56.9684C89.357 56.9221 89.4494 56.8759 89.4956 56.7835C89.5881 56.691 89.5881 56.5985 89.4956 56.5061Z" fill="#EB996E"/>
<path d="M87.9234 55.3966C88.0159 55.3966 88.0159 56.09 88.6169 56.5523C89.2179 57.0608 89.9576 56.9684 89.9576 57.0608C89.9576 57.1071 89.7727 57.1995 89.4953 57.1995C89.1717 57.1995 88.7556 57.1071 88.3857 56.8297C88.0159 56.5523 87.8772 56.1363 87.831 55.8589C87.7847 55.5815 87.8772 55.3966 87.9234 55.3966Z" fill="#263238"/>
<path d="M87.784 49.1557C87.7377 49.3406 87.0905 49.2482 86.3508 49.3406C85.6111 49.4331 85.0101 49.618 84.9176 49.4793C84.8714 49.3869 84.9638 49.2482 85.2412 49.0633C85.4724 48.8784 85.8422 48.7397 86.3046 48.6934C86.7669 48.6472 87.1367 48.6934 87.4141 48.8321C87.6453 48.9708 87.784 49.1095 87.784 49.1557Z" fill="#263238"/>
<path d="M93.4705 48.8783C93.378 49.017 92.9157 48.8783 92.4071 48.8783C91.8986 48.8321 91.4363 48.9708 91.3438 48.8321C91.2976 48.7397 91.39 48.601 91.575 48.4623C91.7599 48.3236 92.0835 48.2311 92.4534 48.2311C92.8232 48.2311 93.1468 48.3698 93.2855 48.5085C93.4705 48.6472 93.5167 48.7859 93.4705 48.8783Z" fill="#263238"/>
<path d="M96.1983 44.1168C95.8747 42.9148 94.9501 41.7591 93.7018 41.528C92.9159 41.3893 92.0837 41.6204 91.2515 41.5742C90.5581 41.528 90.3269 40.9732 89.6797 40.7883C88.6163 40.4185 87.7842 39.2628 85.4726 39.4939C84.8716 39.5401 84.0394 40.2798 83.4846 41.1119C82.6062 40.7421 81.4504 41.1581 80.8032 41.4355C79.4625 42.0365 78.6303 43.5158 78.3991 45.0414C78.1217 46.5669 78.3529 48.1387 78.5841 49.618C78.6765 50.3114 78.769 51.0049 78.8614 51.6983C78.9077 52.1606 79.0001 52.6229 79.2313 53.0389L78.168 62.8394C80.2484 63.6253 82.8836 62.1922 83.3459 59.9732C83.762 58.0316 82.6987 56.09 82.8374 54.1022C82.9298 52.9465 83.5771 51.837 83.5771 50.6813C83.5771 50.3114 83.5308 49.9416 83.3921 49.5255C85.2414 48 85.75 46.7981 85.6575 45.365C86.2123 45.7348 86.9058 46.0122 87.5992 46.0122C88.5701 46.0122 89.5872 45.6423 90.5118 46.0122C91.1591 46.2433 91.6214 46.8443 92.1299 47.3528C92.6385 47.8613 93.2857 48.3236 93.9792 48.2311C94.3028 48.1849 94.6264 48 94.9501 47.9075C95.2737 47.7689 95.6435 47.7226 95.9209 47.9075C96.337 46.6594 96.5219 45.365 96.1983 44.1168Z" fill="#263238"/>
<path d="M68.8301 54.1484C68.8301 54.1022 69.2924 54.5645 70.3557 55.0268C70.8643 55.2579 71.5577 55.4428 72.3437 55.4428C73.1296 55.4428 74.0543 55.2579 74.8864 54.7032C75.6724 54.1484 76.4121 53.1776 76.5045 52.0219C76.5508 51.4671 76.4583 50.8199 76.1809 50.3114C75.9035 49.8029 75.3025 49.3869 74.7015 49.3869C74.3779 49.3869 74.1005 49.4793 73.8231 49.6642C73.5919 49.8491 73.407 50.1265 73.2683 50.4501C73.0834 51.0973 73.1759 51.837 73.6382 52.3455C74.0543 52.9002 74.7477 53.2238 75.4412 53.4088C76.1347 53.5937 76.9206 53.5937 77.6603 53.455C78.4 53.3163 79.0935 52.9927 79.6945 52.5304C80.2955 52.0681 80.7116 51.4671 80.9428 50.8199C81.1739 50.1727 81.2202 49.4331 81.1277 48.7859C81.0815 48.4623 80.9428 48.1387 80.8041 47.8613C80.6192 47.5839 80.4342 47.3066 80.2031 47.1217C79.9719 46.9367 79.6483 46.798 79.3709 46.798C79.0935 46.798 78.8161 46.9367 78.6774 47.2141C78.5387 47.4452 78.4925 47.7689 78.585 48.0462C78.6774 48.3236 78.8161 48.5547 79.0473 48.7397C79.9257 49.5255 81.0815 49.7567 82.0523 49.6642C83.0694 49.5718 83.9016 49.1095 84.4102 48.5547C84.9649 48 85.2423 47.3528 85.4273 46.798C85.7046 45.6886 85.5197 45.0414 85.5659 45.0876C85.5659 45.0876 85.6122 45.2263 85.6584 45.5499C85.7046 45.8272 85.6584 46.2895 85.5197 46.8443C85.381 47.399 85.0574 48.0462 84.5026 48.6472C83.9478 49.2482 83.0694 49.7567 82.0523 49.8491C81.0352 49.9878 79.8332 49.7567 78.9086 48.8783C78.6774 48.6472 78.4925 48.4161 78.4 48.0925C78.3076 47.7689 78.3538 47.399 78.4925 47.0754C78.6774 46.7518 79.0473 46.5669 79.3709 46.5669C79.7408 46.5669 80.0644 46.7056 80.3418 46.9367C80.6192 47.1216 80.8503 47.4452 81.0352 47.7226C81.2202 48.0462 81.3126 48.3698 81.4051 48.7397C81.5438 49.4331 81.4976 50.219 81.2202 50.9124C80.989 51.6058 80.4805 52.253 79.8795 52.7616C79.2784 53.2238 78.5387 53.5474 77.7528 53.7324C76.9669 53.871 76.1809 53.871 75.4412 53.6861C74.7015 53.5012 73.9618 53.1314 73.4995 52.5304C73.2683 52.253 73.0834 51.8832 73.0372 51.5134C72.9909 51.1435 72.9909 50.7737 73.1296 50.4039C73.2683 50.0341 73.4532 49.7105 73.7306 49.4793C74.008 49.2482 74.3779 49.1095 74.7477 49.1557C75.4874 49.1557 76.0885 49.618 76.4121 50.219C76.7357 50.8199 76.8282 51.4671 76.7819 52.0681C76.6432 53.3163 75.8573 54.2871 75.0251 54.8881C74.193 55.489 73.2221 55.674 72.3899 55.6277C71.5577 55.5815 70.8643 55.3966 70.3557 55.1654C69.8472 54.9343 69.4773 54.7032 69.1999 54.5182C69.0612 54.4258 69.015 54.3333 68.9225 54.2871C68.8763 54.1946 68.8301 54.1946 68.8301 54.1484Z" fill="#455A64"/>
<path d="M96.4764 46.1971C96.4764 46.1971 96.4301 46.2433 96.2452 46.3358C96.1065 46.4282 95.8291 46.5207 95.5055 46.6131C95.1819 46.6594 94.7658 46.7056 94.2573 46.6131C93.7949 46.5207 93.2864 46.2433 92.8241 45.8735C92.3618 45.4574 91.9457 44.9489 91.6683 44.2555C91.5296 43.9319 91.4371 43.5158 91.6221 43.0997C91.7145 42.9148 91.8532 42.7299 92.0381 42.6375C92.2231 42.545 92.5005 42.545 92.6854 42.6375C93.1015 42.8686 93.2864 43.3771 93.1477 43.7932C93.009 44.2555 92.6391 44.5791 92.2231 44.764C91.3909 45.18 90.42 45.1338 89.5416 44.8102C89.1255 44.6715 88.7095 44.4404 88.2934 44.2092C87.9235 43.9781 87.5537 43.7469 87.23 43.3771C86.9527 43.0535 86.814 42.4525 87.1376 42.0827C87.2763 41.8978 87.5537 41.8053 87.7848 41.8516C88.016 41.8978 88.2009 42.0365 88.3396 42.2214C88.4783 42.4063 88.5708 42.6375 88.5245 42.8686C88.4783 43.0997 88.3858 43.2847 88.2471 43.4234C87.9697 43.747 87.5999 43.8856 87.23 43.9319C86.8602 43.9781 86.4903 43.8856 86.2129 43.7932C85.8893 43.7007 85.6119 43.562 85.3345 43.4696C84.7798 43.2384 84.3174 42.8686 84.0401 42.4988C83.7627 42.0827 83.6702 41.6667 83.7164 41.2968C83.7627 40.9732 83.8551 40.6959 83.9938 40.5572C84.1325 40.4185 84.1787 40.3723 84.1787 40.3723C84.225 40.3723 83.8551 40.6034 83.8089 41.2968C83.8089 41.6204 83.9014 42.0365 84.1787 42.4063C84.4561 42.7761 84.8722 43.0997 85.427 43.3309C85.9818 43.562 86.5828 43.8394 87.23 43.747C87.5537 43.7007 87.8773 43.562 88.1084 43.2847C88.3396 43.0073 88.3858 42.6375 88.1547 42.3601C87.9697 42.0827 87.5074 41.944 87.2763 42.2676C87.1838 42.4063 87.1376 42.5912 87.1376 42.7761C87.1376 42.9611 87.23 43.146 87.3687 43.2847C87.5999 43.6083 88.016 43.8394 88.3396 44.0706C88.7095 44.3017 89.1255 44.4866 89.5416 44.6253C90.3738 44.9027 91.2984 44.9489 92.0381 44.6253C92.408 44.4404 92.7316 44.163 92.8241 43.7932C92.9628 43.4696 92.7778 43.0535 92.4542 42.8686C92.1768 42.6837 91.807 42.9148 91.6683 43.1922C91.5296 43.4696 91.5758 43.8394 91.7145 44.163C91.9457 44.8102 92.3618 45.3187 92.7778 45.7348C93.1939 46.1046 93.7025 46.382 94.1186 46.4744C94.5809 46.5669 94.997 46.5669 95.3206 46.5207C96.1528 46.4282 96.4764 46.1971 96.4764 46.1971Z" fill="#455A64"/>
<path d="M83.1153 56.9684C83.1153 56.9684 83.069 57.0146 82.9303 57.1071C82.7917 57.1995 82.5605 57.292 82.2369 57.3844C81.9132 57.4307 81.5434 57.4769 81.0811 57.292C80.665 57.1533 80.1564 56.8759 79.9253 56.2749C79.8328 55.9976 79.8328 55.6277 80.1102 55.3504C80.3876 55.1192 80.8037 55.1192 81.1273 55.3504C81.7283 55.7664 81.9595 56.5523 81.8208 57.3382C81.7283 58.0779 81.266 58.8637 80.4801 59.2336C79.6941 59.6034 78.7695 59.5109 77.9836 59.0487C77.6137 58.8175 77.2901 58.5401 77.0127 58.1703C76.7815 57.8005 76.6891 57.3382 76.7815 56.9221C76.8278 56.691 76.9202 56.5061 77.1052 56.3674C77.2439 56.2287 77.475 56.1362 77.7062 56.1362C78.1685 56.1362 78.4921 56.4598 78.677 56.7834C78.862 57.1533 78.9544 57.5231 78.9544 57.8467C78.9544 58.2165 78.9544 58.5401 78.862 58.8637C78.677 59.5109 78.3534 60.0657 77.9373 60.4817C77.5212 60.8978 77.0127 61.0827 76.5504 61.0827C76.0881 61.1289 75.7182 61.0365 75.3946 60.8978C75.1172 60.7591 74.9323 60.6204 74.7936 60.4817C74.7011 60.3431 74.6086 60.2968 74.6549 60.2968C74.6549 60.2506 74.886 60.5742 75.4408 60.8053C75.7182 60.8978 76.0881 60.9903 76.5041 60.944C76.9202 60.8978 77.3825 60.7129 77.7986 60.3431C78.1685 59.9732 78.4921 59.4185 78.6308 58.8175C78.7233 58.4939 78.7233 58.1703 78.7233 57.8467C78.7233 57.5231 78.6308 57.1533 78.4921 56.8759C78.3534 56.5985 78.0298 56.3674 77.7062 56.3212C77.3825 56.3212 77.1052 56.5985 77.0127 56.9684C76.9202 57.3382 77.0127 57.708 77.1976 58.0316C77.3825 58.3552 77.7062 58.6326 78.076 58.8175C78.7695 59.2336 79.6479 59.326 80.3414 59.0024C81.0348 58.6788 81.4509 57.9854 81.5434 57.292C81.6359 56.5985 81.4509 55.9051 80.9424 55.5353C80.7112 55.3504 80.3876 55.3504 80.2027 55.5353C80.0178 55.674 79.9715 55.9976 80.064 56.2287C80.2489 56.7372 80.7112 57.0146 81.0811 57.1533C81.4972 57.292 81.867 57.292 82.1444 57.2457C82.8379 57.1995 83.1153 56.9221 83.1153 56.9684Z" fill="#455A64"/>
<path d="M64.0215 169.35C64.0215 169.35 67.119 175.36 75.1633 172.448C75.1633 172.448 83.0689 176.747 90.6047 171.939C90.6047 171.939 100.406 173.234 105.722 170.691L98.8802 111.703L98.0018 102.642H76.4578C76.4578 102.642 70.0316 105.555 69.0145 119.793C67.9974 134.032 65.7321 153.586 65.7321 153.586L64.0215 169.35Z" fill="#263238"/>
<path d="M90.188 172.078C90.188 172.078 90.188 172.032 90.1418 171.893C90.1418 171.754 90.0955 171.569 90.0955 171.384C90.0493 170.922 90.0031 170.229 89.9568 169.35C89.8181 167.594 89.6332 165.051 89.4483 161.954C89.0784 155.713 88.6623 147.022 88.4774 137.453C88.2925 127.883 88.2925 119.192 88.385 112.951C88.4312 109.808 88.4774 107.265 88.5699 105.509C88.6161 104.63 88.6161 103.983 88.6161 103.474C88.6161 103.243 88.6161 103.058 88.6623 102.966C88.6623 103.105 88.6623 103.29 88.6623 103.474C88.6623 103.937 88.6623 104.63 88.6161 105.509C88.6161 107.265 88.5699 109.808 88.5236 112.951C88.4774 119.238 88.4774 127.883 88.6623 137.453C88.8935 147.022 89.2634 155.667 89.587 161.954C89.7719 165.097 89.9106 167.594 90.0031 169.35C90.0493 170.229 90.0955 170.876 90.0955 171.384C90.0955 171.616 90.0955 171.8 90.0955 171.893C90.188 172.032 90.188 172.078 90.188 172.078Z" fill="#455A64"/>
<path d="M92.0846 155.204C92.0846 155.204 92.1308 155.158 92.2695 155.112C92.4082 155.066 92.5931 155.066 92.778 155.158C92.963 155.251 93.1941 155.436 93.2866 155.759C93.379 156.083 93.1479 156.453 92.8243 156.637C92.5006 156.822 92.0846 156.822 91.8534 156.591C91.6222 156.36 91.5298 156.083 91.576 155.852C91.576 155.62 91.7147 155.436 91.8072 155.389C91.8996 155.297 91.9459 155.297 91.9921 155.297C92.0383 155.343 91.7609 155.482 91.7609 155.898C91.7609 156.083 91.8534 156.314 92.0383 156.453C92.2233 156.591 92.5006 156.591 92.7318 156.453C92.963 156.314 93.1017 156.037 93.1017 155.852C93.0554 155.62 92.9167 155.436 92.7318 155.343C92.3619 155.112 92.0846 155.251 92.0846 155.204Z" fill="#455A64"/>
<path d="M91.5748 137.684C91.5748 137.684 91.621 137.637 91.7597 137.591C91.8984 137.545 92.0833 137.545 92.2683 137.637C92.4532 137.73 92.6844 137.915 92.7768 138.238C92.8693 138.562 92.6381 138.932 92.3145 139.117C91.9909 139.302 91.5748 139.302 91.3436 139.071C91.1125 138.839 91.02 138.562 91.0662 138.331C91.0662 138.1 91.2049 137.915 91.2974 137.869C91.3899 137.776 91.4361 137.776 91.4823 137.776C91.5286 137.822 91.2512 137.961 91.2512 138.377C91.2512 138.562 91.3436 138.793 91.5286 138.932C91.7135 139.071 91.9909 139.071 92.222 138.932C92.4532 138.793 92.5919 138.516 92.5919 138.331C92.5457 138.1 92.407 137.915 92.222 137.822C91.8522 137.591 91.621 137.73 91.5748 137.684Z" fill="#455A64"/>
<path d="M91.2974 122.197C91.2974 122.197 91.3437 122.151 91.4824 122.105C91.6211 122.058 91.806 122.058 91.9909 122.151C92.1759 122.243 92.407 122.428 92.4995 122.752C92.5919 123.075 92.3608 123.445 92.0372 123.63C91.7135 123.815 91.2974 123.815 91.0663 123.584C90.8351 123.353 90.7427 123.075 90.7889 122.844C90.7889 122.613 90.9276 122.428 91.0201 122.382C91.1125 122.29 91.1588 122.29 91.205 122.29C91.2512 122.336 90.9738 122.474 90.9738 122.891C90.9738 123.075 91.0663 123.307 91.2512 123.445C91.4361 123.584 91.7135 123.584 91.9447 123.445C92.1759 123.307 92.3145 123.029 92.3145 122.844C92.2683 122.613 92.1296 122.428 91.9447 122.336C91.5748 122.105 91.2974 122.243 91.2974 122.197Z" fill="#455A64"/>
<path d="M90.7428 105.601C90.7428 105.601 90.789 105.555 90.9277 105.509C91.0664 105.462 91.2513 105.462 91.4362 105.555C91.6212 105.647 91.8523 105.832 91.9448 106.156C92.0372 106.479 91.8061 106.849 91.4825 107.034C91.1588 107.219 90.7428 107.219 90.5116 106.988C90.2804 106.757 90.188 106.479 90.2342 106.248C90.2342 106.017 90.3729 105.832 90.4654 105.786C90.5578 105.693 90.6041 105.693 90.6503 105.693C90.6965 105.74 90.4191 105.878 90.4191 106.294C90.4191 106.479 90.5116 106.71 90.6965 106.849C90.8815 106.988 91.1588 106.988 91.39 106.849C91.6212 106.71 91.7599 106.433 91.7599 106.248C91.7136 106.017 91.5749 105.832 91.39 105.74C91.0202 105.509 90.789 105.647 90.7428 105.601Z" fill="#455A64"/>
<path d="M118.899 87.6642L227.959 86.8783L231.01 160.983L118.066 159.966L118.899 87.6642Z" fill="#FFC54B"/>
<path d="M118.898 87.6642L170.493 45.9197C172.666 44.163 175.81 44.163 177.983 45.9659L227.913 86.9246" fill="#D19311"/>
<path d="M118.066 159.966C117.927 159.827 126.665 150.304 137.576 138.701C148.487 127.051 157.409 117.759 157.548 117.898C157.687 118.036 148.949 127.56 138.038 139.163C127.174 150.766 118.205 160.105 118.066 159.966Z" fill="#263238"/>
<path d="M231.009 160.983C230.871 161.122 222.364 151.783 212.008 140.134C201.652 128.484 193.377 118.961 193.515 118.822C193.654 118.684 202.161 128.022 212.517 139.672C222.872 151.321 231.148 160.891 231.009 160.983Z" fill="#263238"/>
<g opacity="0.5">
<path d="M227.959 86.8783L173.174 130.611L118.898 87.6642" fill="black"/>
</g>
<path d="M124.4 91.7324L124.215 57.6618L219.729 56.5061L220.793 92.3796L173.174 130.056L124.4 91.7324Z" fill="#FAFAFA"/>
<path d="M124.399 91.7324C124.399 91.7324 124.723 91.9635 125.278 92.4258C125.879 92.8881 126.757 93.5815 127.867 94.4599C130.132 96.2165 133.461 98.8516 137.714 102.18C146.22 108.837 158.426 118.406 173.22 130.01H173.081C186.858 119.1 203.085 106.202 220.7 92.2871L220.653 92.3796C220.469 85.5377 220.237 78.3723 220.006 71.0681C219.868 66.1679 219.729 61.3139 219.59 56.5523L219.729 56.691C181.264 57.1071 147.284 57.5231 124.26 57.7543L124.353 57.6618C124.399 68.3869 124.399 76.8929 124.445 82.7178C124.445 85.6302 124.445 87.8954 124.445 89.4209C124.445 90.1606 124.445 90.7616 124.445 91.1314C124.399 91.5012 124.399 91.7324 124.399 91.7324C124.399 91.7324 124.399 91.5474 124.399 91.1314C124.399 90.7616 124.399 90.1606 124.399 89.4209C124.399 87.8954 124.353 85.6764 124.353 82.764C124.307 76.9392 124.26 68.3869 124.168 57.6618V57.5693H124.26C147.33 57.292 181.264 56.8759 219.729 56.4136H219.868V56.5523C220.006 61.3139 220.145 66.1679 220.284 71.0681C220.515 78.3723 220.7 85.5377 220.931 92.3796V92.4258L220.885 92.472C203.27 106.387 186.997 119.285 173.266 130.148L173.22 130.195L173.174 130.148C158.379 118.499 146.174 108.883 137.668 102.226C133.414 98.8978 130.132 96.2628 127.867 94.5061C126.757 93.6277 125.879 92.9343 125.324 92.472C124.677 91.9635 124.399 91.7324 124.399 91.7324Z" fill="#263238"/>
<path d="M204.612 73.6569C204.612 73.7032 190.003 73.8881 172.019 73.9805C153.989 74.073 139.426 74.1192 139.426 74.073C139.426 74.0268 154.035 73.8418 172.019 73.7494C190.003 73.6569 204.612 73.6107 204.612 73.6569Z" fill="#263238"/>
<path d="M204.612 83.2725C204.612 83.3187 190.003 83.5036 172.019 83.5961C153.989 83.6886 139.426 83.7348 139.426 83.6886C139.426 83.6423 154.035 83.4574 172.019 83.365C190.003 83.2725 204.612 83.2263 204.612 83.2725Z" fill="#263238"/>
<path d="M204.612 94.3674C204.612 94.4136 190.003 94.5985 172.019 94.691C153.989 94.7835 139.426 94.8297 139.426 94.7834C139.426 94.7372 154.035 94.5523 172.019 94.4599C190.003 94.3674 204.612 94.3212 204.612 94.3674Z" fill="#263238"/>
<path d="M204.613 105.462C204.613 105.509 190.697 105.647 173.499 105.786C156.3 105.878 142.385 105.925 142.385 105.832C142.385 105.786 156.3 105.647 173.499 105.509C190.697 105.416 204.613 105.416 204.613 105.462Z" fill="#263238"/>
<path d="M192.406 115.217C192.406 115.217 192.267 115.217 192.036 115.263C191.759 115.263 191.389 115.263 190.927 115.309C189.956 115.309 188.569 115.355 186.904 115.355C183.483 115.401 178.768 115.494 173.59 115.54C168.412 115.633 163.696 115.679 160.275 115.679C158.611 115.679 157.224 115.679 156.253 115.679C155.791 115.679 155.421 115.679 155.143 115.679C154.912 115.679 154.773 115.679 154.773 115.679C154.773 115.679 154.912 115.679 155.143 115.633C155.421 115.633 155.791 115.633 156.253 115.586C157.224 115.586 158.611 115.54 160.275 115.54C163.696 115.494 168.412 115.401 173.59 115.355C178.768 115.263 183.483 115.217 186.904 115.217C188.569 115.217 189.956 115.217 190.927 115.217C191.389 115.217 191.759 115.217 192.036 115.217C192.267 115.17 192.406 115.17 192.406 115.217Z" fill="#263238"/>
<path d="M180.108 124.555C180.108 124.601 177.01 124.693 173.173 124.693C169.336 124.693 166.238 124.647 166.238 124.555C166.238 124.509 169.336 124.416 173.173 124.416C177.01 124.416 180.108 124.509 180.108 124.555Z" fill="#263238"/>
<path d="M212.24 116.973C218.598 116.973 223.752 111.82 223.752 105.462C223.752 99.105 218.598 93.9513 212.24 93.9513C205.882 93.9513 200.729 99.105 200.729 105.462C200.729 111.82 205.882 116.973 212.24 116.973Z" fill="#263238"/>
<path d="M209.512 117.022C215.869 117.022 221.023 111.868 221.023 105.511C221.023 99.1536 215.869 94 209.512 94C203.154 94 198 99.1536 198 105.511C198 111.868 203.154 117.022 209.512 117.022Z" fill="#455A64"/>
<path d="M145.805 34.871C145.805 34.871 145.759 34.7786 145.713 34.5937C145.667 34.4088 145.62 34.1314 145.528 33.7616C145.482 33.3917 145.343 32.9757 145.158 32.4672C145.066 32.236 145.019 31.9124 144.881 31.635C144.742 31.3577 144.603 31.0341 144.511 30.7567C143.91 29.5085 143.032 28.0292 141.737 26.6423C140.396 25.2092 138.64 23.9148 136.42 22.9903C135.311 22.4818 134.109 22.2044 132.861 21.9732C131.566 21.8346 130.225 21.7421 128.838 21.927C128.145 21.9732 127.451 22.1582 126.758 22.2968C126.388 22.3893 126.064 22.528 125.741 22.6204C125.371 22.7129 125.047 22.8516 124.724 22.9903C123.337 23.4988 122.042 24.3309 120.794 25.3479C118.344 27.3358 116.402 30.2944 115.57 33.7153C115.154 35.4258 115.061 37.2749 115.246 39.0779C115.431 40.927 115.986 42.7299 116.818 44.3942L117.096 44.9027L117.142 44.9489V44.9951C116.31 47.8151 115.431 50.5426 114.645 53.1776L114.414 52.9927C116.679 51.7908 118.899 50.635 121.025 49.5718L121.118 49.5255L121.21 49.5718C123.337 51.1898 125.787 52.2068 128.145 52.5766C130.549 52.9465 132.907 52.7153 134.987 52.1144C137.068 51.5134 138.917 50.4501 140.396 49.202C141.876 47.9538 143.032 46.5669 143.864 45.1338C144.696 43.7007 145.204 42.3139 145.528 41.0195C145.805 39.7251 145.944 38.6156 145.99 37.691C145.99 37.2287 145.99 36.8127 145.99 36.4891C145.944 36.1655 145.944 35.8419 145.898 35.6107C145.898 35.3796 145.852 35.1946 145.852 35.056C145.805 34.9635 145.805 34.871 145.805 34.871C145.805 34.871 145.805 34.9173 145.852 35.056C145.852 35.1946 145.898 35.3796 145.898 35.6107C145.944 35.8419 145.944 36.1655 145.99 36.4891C145.99 36.8589 145.99 37.2749 145.99 37.691C145.99 38.6156 145.852 39.7251 145.574 41.0195C145.251 42.3139 144.742 43.747 143.91 45.18C143.078 46.6131 141.922 48.0462 140.396 49.3406C138.917 50.5888 137.068 51.6521 134.941 52.2993C132.814 52.9465 130.457 53.1776 128.006 52.8078C125.556 52.438 123.106 51.4209 120.933 49.7567H121.071C118.945 50.8662 116.726 52.0219 114.46 53.2238L114.137 53.4088L114.229 53.0389C115.015 50.3577 115.894 47.6302 116.726 44.8564V44.9951L116.448 44.4866C115.57 42.7762 115.015 40.927 114.83 39.0779C114.599 37.2287 114.691 35.3333 115.154 33.5766C116.032 30.0633 117.974 27.0584 120.517 25.0706C121.765 24.0535 123.106 23.2214 124.493 22.7129C124.816 22.528 125.186 22.4355 125.556 22.3431C125.926 22.2506 126.249 22.1119 126.619 22.0195C127.313 21.8808 128.006 21.6959 128.746 21.6496C130.133 21.4647 131.52 21.5572 132.814 21.7421C134.109 21.9732 135.357 22.2968 136.42 22.8054C138.64 23.7299 140.443 25.1168 141.783 26.5499C143.124 27.983 144.002 29.5085 144.557 30.7567C144.696 31.0803 144.835 31.4039 144.927 31.6813C145.066 31.9586 145.112 32.236 145.204 32.5134C145.343 33.0219 145.482 33.4842 145.574 33.8078C145.62 34.1776 145.713 34.4088 145.713 34.6399C145.805 34.7786 145.805 34.871 145.805 34.871Z" fill="#DAD7D7"/>
<path d="M273.359 144.664C274.885 149.796 273.729 156.36 271.88 161.353C270.03 166.345 266.563 170.737 262.125 173.696C261.616 174.019 260.969 174.343 260.46 174.066C260.044 173.835 259.859 173.28 259.767 172.818C258.704 167.363 259.443 161.538 261.847 156.499C264.298 151.414 268.412 147.253 273.359 144.664Z" fill="#067CC1"/>
<g opacity="0.2">
<path d="M273.359 144.664C274.885 149.796 273.729 156.36 271.88 161.353C270.03 166.345 266.563 170.737 262.125 173.696C261.616 174.019 260.969 174.343 260.46 174.066C260.044 173.835 259.859 173.28 259.767 172.818C258.704 167.363 259.443 161.538 261.847 156.499C264.298 151.414 268.412 147.253 273.359 144.664Z" fill="black"/>
</g>
<path d="M250.658 120.394C253.848 120.302 255.928 123.861 256.252 127.005C256.576 130.195 255.882 133.477 256.807 136.528C258.009 140.411 261.615 143.185 262.678 147.068C263.973 151.645 261.43 156.406 261.337 161.214C261.291 163.526 261.8 165.883 261.384 168.148C260.644 171.985 256.992 175.083 253.062 175.129C249.132 175.175 245.434 172.17 244.602 168.333C243.862 164.774 245.434 160.983 244.509 157.423C243.816 154.835 241.781 152.616 241.643 149.934C241.458 146.745 243.908 143.971 244.37 140.781C244.833 137.591 243.215 134.494 242.983 131.304C242.521 125.526 244.925 121.041 250.658 120.394Z" fill="#067CC1"/>
<path d="M257.639 185.808C257.639 185.808 257.685 185.715 257.732 185.484C257.778 185.253 257.87 184.929 257.963 184.56C258.148 183.774 258.379 182.618 258.749 181.185C259.442 178.319 260.552 174.436 262.031 170.182C263.557 165.976 265.175 162.231 266.423 159.596C267.07 158.255 267.579 157.192 267.949 156.453C268.134 156.129 268.273 155.805 268.365 155.62C268.457 155.436 268.504 155.297 268.504 155.297C268.504 155.297 268.411 155.389 268.319 155.574C268.18 155.805 268.041 156.083 267.856 156.406C267.44 157.1 266.886 158.163 266.238 159.504C264.898 162.139 263.233 165.837 261.754 170.09C260.228 174.343 259.211 178.273 258.564 181.139C258.24 182.572 258.009 183.727 257.87 184.56C257.824 184.929 257.778 185.253 257.732 185.484C257.639 185.715 257.593 185.808 257.639 185.808Z" fill="#263238"/>
<path d="M250.797 136.066C250.797 136.066 250.797 136.251 250.843 136.574C250.889 136.944 250.936 137.406 251.028 138.007C251.213 139.302 251.444 141.105 251.722 143.324C252.323 147.808 253.155 154.049 253.987 160.937C254.865 167.825 255.605 174.066 256.114 178.55C256.391 180.769 256.576 182.618 256.761 183.912C256.853 184.513 256.899 185.022 256.946 185.345C256.992 185.669 257.038 185.854 257.038 185.854C257.038 185.854 257.038 185.669 256.992 185.345C256.946 184.976 256.899 184.513 256.853 183.866C256.715 182.572 256.53 180.769 256.298 178.504C255.836 173.973 255.096 167.732 254.264 160.844C253.386 153.956 252.554 147.715 251.906 143.231C251.583 141.012 251.305 139.209 251.12 137.915C251.028 137.314 250.936 136.805 250.889 136.482C250.797 136.251 250.797 136.066 250.797 136.066Z" fill="#263238"/>
<path d="M268.734 179.567H244.555V182.387H268.734V179.567Z" fill="#263238"/>
<path d="M246.82 182.387L249.64 199.491H264.62L266.607 182.387H246.82Z" fill="#263238"/>
<path d="M266.654 182.248C266.654 182.294 262.169 182.433 256.668 182.479C251.166 182.526 246.682 182.572 246.682 182.479C246.682 182.433 251.12 182.294 256.668 182.248C262.215 182.202 266.654 182.202 266.654 182.248Z" fill="#455A64"/>
<path d="M265.823 190.847C265.823 190.847 265.776 190.847 265.684 190.847C265.591 190.847 265.453 190.847 265.268 190.847C264.898 190.847 264.389 190.847 263.742 190.8C263.095 190.708 262.263 190.523 261.477 189.922C261.107 189.645 260.737 189.229 260.46 188.766C260.229 188.258 260.136 187.657 260.321 187.056C260.506 186.455 261.107 185.946 261.847 185.946C262.217 185.946 262.54 186.131 262.771 186.409C263.002 186.686 263.141 187.01 263.234 187.38C263.511 188.859 262.494 190.477 260.922 190.985C259.35 191.54 257.408 190.616 256.622 189.044C256.438 188.628 256.299 188.212 256.253 187.749C256.253 187.287 256.345 186.825 256.622 186.409C256.9 186.039 257.316 185.715 257.824 185.669C258.333 185.623 258.842 185.9 259.073 186.316C259.35 186.732 259.489 187.195 259.489 187.657C259.489 188.119 259.35 188.582 259.165 188.998C258.749 189.83 258.009 190.431 257.223 190.8C256.438 191.17 255.605 191.401 254.773 191.494C253.941 191.586 253.109 191.54 252.323 191.263C251.537 190.985 250.89 190.477 250.474 189.83C250.058 189.182 249.965 188.35 250.243 187.657C250.474 186.963 251.075 186.409 251.768 186.316C252.462 186.224 253.155 186.501 253.525 186.963C253.941 187.472 253.895 188.165 253.664 188.674C253.432 189.182 253.063 189.552 252.647 189.83C252.23 190.107 251.814 190.246 251.445 190.431C251.075 190.569 250.705 190.708 250.381 190.8C249.734 190.985 249.225 191.078 248.856 191.124C248.671 191.17 248.532 191.17 248.439 191.17C248.347 191.17 248.301 191.17 248.301 191.17C248.301 191.17 248.347 191.17 248.439 191.124C248.532 191.124 248.671 191.078 248.809 191.032C249.133 190.939 249.641 190.847 250.289 190.662C250.612 190.569 250.936 190.431 251.352 190.292C251.722 190.153 252.138 189.968 252.508 189.691C252.878 189.414 253.248 189.09 253.479 188.582C253.664 188.119 253.71 187.472 253.34 187.056C252.97 186.64 252.369 186.363 251.722 186.455C251.121 186.547 250.566 187.056 250.381 187.703C250.15 188.35 250.243 189.09 250.612 189.691C250.982 190.292 251.629 190.8 252.323 191.032C253.063 191.309 253.849 191.309 254.681 191.217C255.467 191.124 256.299 190.893 257.085 190.523C257.825 190.153 258.518 189.552 258.888 188.813C259.304 188.073 259.35 187.056 258.842 186.363C258.61 185.993 258.194 185.808 257.778 185.854C257.362 185.9 256.992 186.131 256.761 186.455C256.53 186.779 256.438 187.241 256.438 187.657C256.438 188.073 256.576 188.489 256.761 188.859C257.501 190.338 259.304 191.217 260.783 190.708C262.263 190.246 263.234 188.72 262.956 187.38C262.91 187.056 262.771 186.732 262.54 186.501C262.355 186.27 262.032 186.085 261.754 186.085C261.153 186.039 260.598 186.501 260.413 187.056C260.229 187.611 260.321 188.165 260.552 188.674C260.783 189.136 261.107 189.506 261.477 189.83C262.217 190.384 263.049 190.616 263.696 190.708C264.343 190.8 264.898 190.8 265.222 190.8C265.406 190.8 265.499 190.8 265.638 190.8C265.776 190.847 265.823 190.847 265.823 190.847Z" fill="#455A64"/>
<path d="M205.381 102.608H203.461V101.228H206.857V110H205.381V102.608ZM211.292 110.144C209.456 110.144 208.244 108.968 208.244 107.192H209.768C209.768 108.188 210.356 108.776 211.328 108.776C212.36 108.776 213.02 108.104 213.02 107.036C213.02 106.016 212.408 105.32 211.352 105.32C210.68 105.32 210.068 105.656 209.756 106.112L208.4 105.824L209.48 101.228H214.052V102.644H210.584L210.116 104.468C210.536 104.192 211.064 104.036 211.664 104.036C213.416 104.036 214.58 105.224 214.58 106.952C214.58 108.848 213.248 110.144 211.292 110.144Z" fill="white"/>
</g>
<defs>
<clipPath id="clip0_1157_3938">
<rect width="336" height="200" fill="white"/>
</clipPath>
</defs>
</svg>
