<svg class="svg-icon" width="28" height="28" viewBox="0 0 1024 1024" version="1.1" fill="none" xmlns="http://www.w3.org/2000/svg">
<path d="M511.3 114.2c53.8 0 105.9 10.5 154.9 31.3 47.4 20 90 48.7 126.5 85.3 36.6 36.6 65.3 79.1 85.3 126.5 20.7 49 31.3 101.2 31.3 154.9S898.8 618.1 878 667.1c-20 47.4-48.7 90-85.3 126.5-36.6 36.6-79.1 65.3-126.5 85.3-49 20.7-101.2 31.3-154.9 31.3S405.5 899.7 356.4 879c-47.4-20-90-48.7-126.5-85.3-36.6-36.6-65.3-79.1-85.3-126.5-20.7-49-31.3-101.2-31.3-154.9s10.5-105.9 31.3-154.9c20-47.4 48.7-90 85.3-126.5 36.6-36.6 79.1-65.3 126.5-85.3 49.1-20.9 101.2-31.4 154.9-31.4m0-50c-247.4 0-448 200.6-448 448s200.6 448 448 448 448-200.6 448-448-200.5-448-448-448z" fill="#999999" />
<path d="M256.1 486.8h512.1v50H256.1z" fill="#999999" /></svg>