<svg width="72" height="72" viewBox="0 0 72 72" fill="none" xmlns="http://www.w3.org/2000/svg">
<rect width="72" height="72" rx="36" fill="#F3F5F7"/>
<rect width="72" height="72" rx="36" fill="url(#paint0_linear_37_4542)"/>
<path d="M36 20.9998C27.735 20.9998 21 27.7348 21 35.9998C21 44.2648 27.735 50.9998 36 50.9998C44.265 50.9998 51 44.2648 51 35.9998C51 27.7348 44.265 20.9998 36 20.9998ZM42.525 41.3548C42.315 41.7148 41.94 41.9098 41.55 41.9098C41.355 41.9098 41.16 41.8648 40.98 41.7448L36.33 38.9698C35.175 38.2798 34.32 36.7648 34.32 35.4298V29.2798C34.32 28.6648 34.83 28.1548 35.445 28.1548C36.06 28.1548 36.57 28.6648 36.57 29.2798V35.4298C36.57 35.9698 37.02 36.7648 37.485 37.0348L42.135 39.8098C42.675 40.1248 42.855 40.8148 42.525 41.3548Z" fill="white"/>
<defs>
<linearGradient id="paint0_linear_37_4542" x1="-9.64286" y1="2.57143" x2="77.1429" y2="82.9286" gradientUnits="userSpaceOnUse">
<stop stop-color="#F8B11B"/>
<stop offset="1" stop-color="#FF6A37"/>
</linearGradient>
</defs>
</svg>
