<svg width="26" height="26" viewBox="0 0 26 26" fill="none" xmlns="http://www.w3.org/2000/svg">
<path d="M23.5734 17.2467L16.6401 4.76675C15.7084 3.08758 14.4193 2.16675 13.0001 2.16675C11.5809 2.16675 10.2918 3.08758 9.3601 4.76675L2.42676 17.2467C1.54926 18.8392 1.45176 20.3667 2.15593 21.5692C2.8601 22.7717 4.24676 23.4326 6.06676 23.4326H19.9334C21.7534 23.4326 23.1401 22.7717 23.8443 21.5692C24.5484 20.3667 24.4509 18.8284 23.5734 17.2467ZM12.1876 9.75008C12.1876 9.30591 12.5559 8.93758 13.0001 8.93758C13.4443 8.93758 13.8126 9.30591 13.8126 9.75008V15.1667C13.8126 15.6109 13.4443 15.9792 13.0001 15.9792C12.5559 15.9792 12.1876 15.6109 12.1876 15.1667V9.75008ZM13.7693 19.1859C13.7151 19.2292 13.6609 19.2726 13.6068 19.3159C13.5418 19.3592 13.4768 19.3917 13.4118 19.4134C13.3468 19.4459 13.2818 19.4676 13.2059 19.4784C13.1409 19.4892 13.0651 19.5001 13.0001 19.5001C12.9351 19.5001 12.8593 19.4892 12.7834 19.4784C12.7184 19.4676 12.6534 19.4459 12.5884 19.4134C12.5234 19.3917 12.4584 19.3592 12.3934 19.3159C12.3393 19.2726 12.2851 19.2292 12.2309 19.1859C12.0359 18.9801 11.9168 18.6984 11.9168 18.4167C11.9168 18.1351 12.0359 17.8534 12.2309 17.6476C12.2851 17.6042 12.3393 17.5609 12.3934 17.5176C12.4584 17.4742 12.5234 17.4417 12.5884 17.4201C12.6534 17.3876 12.7184 17.3659 12.7834 17.3551C12.9243 17.3226 13.0759 17.3226 13.2059 17.3551C13.2818 17.3659 13.3468 17.3876 13.4118 17.4201C13.4768 17.4417 13.5418 17.4742 13.6068 17.5176C13.6609 17.5609 13.7151 17.6042 13.7693 17.6476C13.9643 17.8534 14.0834 18.1351 14.0834 18.4167C14.0834 18.6984 13.9643 18.9801 13.7693 19.1859Z" fill="#FF4040"/>
</svg>
