<svg width="28" height="28" viewBox="0 0 28 28" fill="none" xmlns="http://www.w3.org/2000/svg">
<g clip-path="url(#clip0_809_2683)">
<path d="M26.8219 11.5885L15.5074 11.588C15.0078 11.588 14.6028 11.9929 14.6028 12.4926V16.107C14.6028 16.6066 15.0078 17.0116 15.5073 17.0116H21.879C21.1813 18.8223 19.8791 20.3387 18.2176 21.3022L20.9345 26.0053C25.2927 23.4848 27.8693 19.0623 27.8693 14.1116C27.8693 13.4067 27.8173 12.9028 27.7134 12.3354C27.6344 11.9043 27.2602 11.5885 26.8219 11.5885Z" fill="#167EE6"/>
<path d="M13.9996 22.4424C10.8815 22.4424 8.15935 20.7387 6.69736 18.2177L1.99438 20.9284C4.3877 25.0764 8.87114 27.8696 13.9996 27.8696C16.5155 27.8696 18.8894 27.1922 20.9344 26.0118V26.0053L18.2176 21.3021C16.9748 22.0229 15.5367 22.4424 13.9996 22.4424Z" fill="#12B347"/>
<path d="M20.9345 26.0117V26.0053L18.2177 21.3021C16.9749 22.0228 15.5369 22.4424 13.9998 22.4424V27.8696C16.5156 27.8696 18.8896 27.1922 20.9345 26.0117Z" fill="#0F993E"/>
<path d="M5.55735 14.0001C5.55735 12.4631 5.9768 11.0251 6.69742 9.78246L1.99445 7.07172C0.80746 9.11027 0.130127 11.4777 0.130127 14.0001C0.130127 16.5224 0.80746 18.8898 1.99445 20.9284L6.69742 18.2176C5.9768 16.975 5.55735 15.537 5.55735 14.0001Z" fill="#FFD500"/>
<path d="M13.9996 5.55772C16.033 5.55772 17.9007 6.28024 19.3596 7.48207C19.7195 7.77853 20.2426 7.75713 20.5722 7.42746L23.1332 4.86646C23.5073 4.49242 23.4806 3.88015 23.0811 3.53352C20.6368 1.41305 17.4566 0.130493 13.9996 0.130493C8.87114 0.130493 4.3877 2.92375 1.99438 7.07172L6.69736 9.78246C8.15935 7.2614 10.8815 5.55772 13.9996 5.55772Z" fill="#FF4B26"/>
<path d="M19.3597 7.48207C19.7196 7.77853 20.2427 7.75713 20.5724 7.42746L23.1334 4.86646C23.5073 4.49242 23.4807 3.88015 23.0812 3.53352C20.6369 1.41299 17.4567 0.130493 13.9998 0.130493V5.55772C16.0331 5.55772 17.9008 6.28024 19.3597 7.48207Z" fill="#D93F21"/>
</g>
<defs>
<clipPath id="clip0_809_2683">
<rect width="27.7391" height="27.7391" fill="white" transform="translate(0.130127 0.130493)"/>
</clipPath>
</defs>
</svg>
