<svg width="28" height="28" viewBox="0 0 28 28" fill="none" xmlns="http://www.w3.org/2000/svg">
<path d="M25.6665 18.8883L25.6665 9.11168C25.6665 4.86501 23.1348 2.33334 18.8882 2.33334L9.12317 2.33334C4.86484 2.33334 2.33317 4.86501 2.33317 9.11168L2.33317 18.8767C2.33317 23.1233 4.86483 25.655 9.1115 25.655L18.8882 25.655C23.1348 25.6667 25.6665 23.135 25.6665 18.8883ZM12.8332 9.33334C12.8332 8.68001 13.3582 8.16668 13.9998 8.16668C14.6415 8.16668 15.1665 8.69168 15.1665 9.33334C15.1665 9.97501 14.6415 10.5 13.9998 10.5C13.3582 10.5 12.8332 9.98668 12.8332 9.33334ZM12.8332 14C12.8332 13.3467 13.3582 12.8333 13.9998 12.8333C14.6415 12.8333 15.1665 13.3583 15.1665 14C15.1665 14.6417 14.6415 15.1667 13.9998 15.1667C13.3582 15.1667 12.8332 14.6533 12.8332 14ZM12.8332 18.6667C12.8332 18.0133 13.3582 17.5 13.9998 17.5C14.6415 17.5 15.1665 18.025 15.1665 18.6667C15.1665 19.3083 14.6415 19.8333 13.9998 19.8333C13.3582 19.8333 12.8332 19.32 12.8332 18.6667Z" fill="#9298A4"/>
</svg>
