<svg width="22" height="26" viewBox="0 0 22 26" fill="none" xmlns="http://www.w3.org/2000/svg">
<path d="M5.65936 16.7276C5.65936 16.2958 5.35975 16.0383 4.83111 16.0383C4.61524 16.0383 4.46905 16.0596 4.39258 16.08V17.4654C4.48312 17.4857 4.59442 17.4925 4.74784 17.4925C5.31132 17.4925 5.65936 17.2079 5.65936 16.7276Z" fill="white"/>
<path d="M8.93139 16.0528C8.69465 16.0528 8.54166 16.0733 8.45117 16.0944V19.1626C8.54171 19.1839 8.68791 19.1839 8.82008 19.1839C9.78045 19.1907 10.4068 18.662 10.4068 17.5419C10.4136 16.5678 9.84285 16.0528 8.93139 16.0528Z" fill="white"/>
<path d="M15.0113 0H4.56861C3.04303 0 1.80138 1.24251 1.80138 2.76723V12.9999H1.5311C0.915373 12.9999 0.416016 13.4988 0.416016 14.1151V20.8777C0.416016 21.4939 0.915319 21.9927 1.5311 21.9927H1.80138V23.2327C1.80138 24.7591 3.04303 25.9999 4.56861 25.9999H18.8172C20.3418 25.9999 21.5836 24.759 21.5836 23.2327V6.54929L15.0113 0ZM3.34135 15.3355C3.66815 15.2803 4.12749 15.2386 4.77466 15.2386C5.42868 15.2386 5.89481 15.3635 6.20802 15.6142C6.5072 15.8505 6.7091 16.2406 6.7091 16.6996C6.7091 17.1585 6.55611 17.5487 6.27774 17.813C5.91568 18.1538 5.38025 18.3068 4.7539 18.3068C4.6145 18.3068 4.48955 18.2999 4.39184 18.2863V19.9632H3.34135V15.3355ZM18.8172 24.3053H4.56861C3.9779 24.3053 3.49688 23.8242 3.49688 23.2327V21.9927H16.7794C17.3953 21.9927 17.8946 21.4939 17.8946 20.8777V14.1151C17.8946 13.4988 17.3953 12.9999 16.7794 12.9999H3.49688V2.76723C3.49688 2.17738 3.97795 1.69636 4.56861 1.69636L14.3772 1.68611V5.31173C14.3772 6.37074 15.2365 7.23081 16.2963 7.23081L19.848 7.22062L19.888 23.2327C19.888 23.8242 19.4078 24.3053 18.8172 24.3053ZM7.38647 19.942V15.3355C7.77608 15.2735 8.28391 15.2386 8.81983 15.2386C9.71047 15.2386 10.288 15.3984 10.7406 15.7392C11.2276 16.1012 11.5335 16.6784 11.5335 17.5069C11.5335 18.4044 11.2067 19.024 10.7541 19.4064C10.2603 19.8169 9.50863 20.0116 8.59032 20.0116C8.04038 20.0116 7.65076 19.9768 7.38647 19.942ZM14.9807 17.2147V18.0773H13.2966V19.9632H12.2321V15.2735H15.0988V16.1429H13.2966V17.2147H14.9807Z" fill="white"/>
</svg>
