<svg width="72" height="72" viewBox="0 0 72 72" fill="none" xmlns="http://www.w3.org/2000/svg">
<rect width="72" height="72" rx="36" fill="url(#paint0_linear_37_4522)"/>
<path d="M43.5 21.645H28.5C24 21.645 21 24.645 21 29.145V38.145C21 42.645 24 45.645 28.5 45.645V48.84C28.5 50.04 29.835 50.76 30.825 50.085L37.5 45.645H43.5C48 45.645 51 42.645 51 38.145V29.145C51 24.645 48 21.645 43.5 21.645ZM36 39.9C35.37 39.9 34.875 39.39 34.875 38.775C34.875 38.16 35.37 37.65 36 37.65C36.63 37.65 37.125 38.16 37.125 38.775C37.125 39.39 36.63 39.9 36 39.9ZM37.89 33.675C37.305 34.065 37.125 34.32 37.125 34.74V35.055C37.125 35.67 36.615 36.18 36 36.18C35.385 36.18 34.875 35.67 34.875 35.055V34.74C34.875 33 36.15 32.145 36.63 31.815C37.185 31.44 37.365 31.185 37.365 30.795C37.365 30.045 36.75 29.43 36 29.43C35.25 29.43 34.635 30.045 34.635 30.795C34.635 31.41 34.125 31.92 33.51 31.92C32.895 31.92 32.385 31.41 32.385 30.795C32.385 28.8 34.005 27.18 36 27.18C37.995 27.18 39.615 28.8 39.615 30.795C39.615 32.505 38.355 33.36 37.89 33.675Z" fill="white"/>
<defs>
<linearGradient id="paint0_linear_37_4522" x1="-3.5" y1="-5.77627e-07" x2="56.5" y2="75.5" gradientUnits="userSpaceOnUse">
<stop stop-color="#4BDFFF"/>
<stop offset="1" stop-color="#106AF0"/>
</linearGradient>
</defs>
</svg>
