<svg width="28" height="28" viewBox="0 0 28 28" fill="none" xmlns="http://www.w3.org/2000/svg">
<path d="M24.5 6.97667C20.615 6.59167 16.7067 6.39334 12.81 6.39334C10.5 6.39334 8.19 6.51001 5.88 6.74334L3.5 6.97667" stroke="#FF4F4F" stroke-width="1.5" stroke-linecap="round" stroke-linejoin="round"/>
<path d="M9.91602 5.79834L10.1727 4.27001C10.3593 3.16168 10.4993 2.33334 12.471 2.33334H15.5277C17.4994 2.33334 17.651 3.20834 17.826 4.28168L18.0827 5.79834" stroke="#FF4F4F" stroke-width="1.5" stroke-linecap="round" stroke-linejoin="round"/>
<path d="M21.9911 10.6633L21.2328 22.4117C21.1045 24.2433 20.9995 25.6667 17.7445 25.6667H10.2545C6.99948 25.6667 6.89448 24.2433 6.76615 22.4117L6.00781 10.6633" stroke="#FF4F4F" stroke-width="1.5" stroke-linecap="round" stroke-linejoin="round"/>
<path d="M12.0508 19.25H15.9358" stroke="#FF4F4F" stroke-width="1.5" stroke-linecap="round" stroke-linejoin="round"/>
<path d="M11.084 14.5833H16.9173" stroke="#FF4F4F" stroke-width="1.5" stroke-linecap="round" stroke-linejoin="round"/>
</svg>
