<svg width="355" height="325" viewBox="0 0 355 325" fill="none" xmlns="http://www.w3.org/2000/svg">
<mask id="mask0_37_4534" style="mask-type:alpha" maskUnits="userSpaceOnUse" x="0" y="0" width="355" height="325">
<mask id="path-1-inside-1_37_4534" fill="white">
<path d="M0 40C0 21.1438 0 11.7157 5.85786 5.85786C11.7157 0 21.1438 0 40 0H315C333.856 0 343.284 0 349.142 5.85786C355 11.7157 355 21.1438 355 40V285C355 303.856 355 313.284 349.142 319.142C343.284 325 333.856 325 315 325H40C21.1438 325 11.7157 325 5.85786 319.142C0 313.284 0 303.856 0 285V40Z"/>
</mask>
<path d="M0 40C0 21.1438 0 11.7157 5.85786 5.85786C11.7157 0 21.1438 0 40 0H315C333.856 0 343.284 0 349.142 5.85786C355 11.7157 355 21.1438 355 40V285C355 303.856 355 313.284 349.142 319.142C343.284 325 333.856 325 315 325H40C21.1438 325 11.7157 325 5.85786 319.142C0 313.284 0 303.856 0 285V40Z" fill="white"/>
<path d="M0 0H355H0ZM355 325H0H355ZM0 325V0V325ZM335 0C348.807 0 360 11.1929 360 25V300C360 313.807 348.807 325 335 325C343.284 325 350 316.046 350 305V20C350 8.9543 343.284 0 335 0Z" fill="#FA9C23" mask="url(#path-1-inside-1_37_4534)"/>
</mask>
<g mask="url(#mask0_37_4534)">
<circle cx="364" cy="20" r="68" transform="rotate(-90 364 20)" fill="url(#paint0_linear_37_4534)" fill-opacity="0.09"/>
<g filter="url(#filter0_f_37_4534)">
<path d="M326 -75.5C356.652 -75.5 381.5 -50.6518 381.5 -20C381.5 10.6518 356.652 35.5 326 35.5C295.348 35.5 270.5 10.6518 270.5 -20C270.5 -50.6518 295.348 -75.5 326 -75.5Z" stroke="#FA9C25" stroke-opacity="0.1"/>
</g>
<path d="M365.695 304.318C329.327 294.219 289.583 296.887 257.633 303.888C228.665 310.23 194.321 315.441 159.483 308.353C118.171 300.019 92.2033 271.493 74.1021 249.249C58.6975 230.29 31.8123 205.329 -5.64114 200.497C-21.2026 198.52 -34.6717 203.256 -46.4809 207.728L-31.2534 371.205L388.928 332.066L387.105 312.494C380.279 309.214 373.224 306.391 365.695 304.318Z" fill="url(#paint1_linear_37_4534)" fill-opacity="0.09"/>
</g>
<defs>
<filter id="filter0_f_37_4534" x="269" y="-77" width="114" height="114" filterUnits="userSpaceOnUse" color-interpolation-filters="sRGB">
<feFlood flood-opacity="0" result="BackgroundImageFix"/>
<feBlend mode="normal" in="SourceGraphic" in2="BackgroundImageFix" result="shape"/>
<feGaussianBlur stdDeviation="0.5" result="effect1_foregroundBlur_37_4534"/>
</filter>
<linearGradient id="paint0_linear_37_4534" x1="361.51" y1="-74.5" x2="432.083" y2="87.964" gradientUnits="userSpaceOnUse">
<stop stop-color="#FD7F2E"/>
<stop offset="1" stop-color="white" stop-opacity="0"/>
</linearGradient>
<linearGradient id="paint1_linear_37_4534" x1="165.293" y1="289.547" x2="171.157" y2="352.351" gradientUnits="userSpaceOnUse">
<stop stop-color="#FD7F2E"/>
<stop offset="1" stop-color="white" stop-opacity="0"/>
</linearGradient>
</defs>
</svg>
