<svg width="780" height="1080" viewBox="0 0 780 1080" fill="none" xmlns="http://www.w3.org/2000/svg">
<mask id="mask0_809_2980" style="mask-type:alpha" maskUnits="userSpaceOnUse" x="0" y="0" width="780" height="1080">
<rect width="780" height="1080" fill="#067CC1"/>
</mask>
<g mask="url(#mask0_809_2980)">
<circle cx="710.5" cy="119.5" r="151.5" fill="url(#paint0_linear_809_2980)" fill-opacity="0.15"/>
<path d="M166.65 67L205 141L125 128.241L166.65 67Z" fill="url(#paint1_linear_809_2980)" fill-opacity="0.15"/>
<path d="M-29.793 292L137.707 692.5L-223 563L-29.793 292Z" fill="url(#paint2_linear_809_2980)" fill-opacity="0.15"/>
<path d="M115.444 303.787L146.379 297.967L133.215 325.353L115.444 303.787Z" fill="url(#paint3_linear_809_2980)" fill-opacity="0.15"/>
<path d="M426.438 225.184L444.905 250.675L414.52 250.461L426.438 225.184Z" fill="url(#paint4_linear_809_2980)" fill-opacity="0.15"/>
</g>
<defs>
<linearGradient id="paint0_linear_809_2980" x1="507.5" y1="301" x2="817" y2="81.5" gradientUnits="userSpaceOnUse">
<stop stop-color="white"/>
<stop offset="1" stop-color="white" stop-opacity="0"/>
</linearGradient>
<linearGradient id="paint1_linear_809_2980" x1="111.403" y1="148.327" x2="188.751" y2="89.0228" gradientUnits="userSpaceOnUse">
<stop stop-color="white"/>
<stop offset="1" stop-color="white" stop-opacity="0"/>
</linearGradient>
<linearGradient id="paint2_linear_809_2980" x1="-184.034" y1="717.648" x2="81.5607" y2="513.713" gradientUnits="userSpaceOnUse">
<stop stop-color="white"/>
<stop offset="1" stop-color="white" stop-opacity="0"/>
</linearGradient>
<linearGradient id="paint3_linear_809_2980" x1="139.049" y1="332.404" x2="126.088" y2="298.1" gradientUnits="userSpaceOnUse">
<stop stop-color="white"/>
<stop offset="1" stop-color="white" stop-opacity="0"/>
</linearGradient>
<linearGradient id="paint4_linear_809_2980" x1="410.635" y1="258.747" x2="436.123" y2="232.382" gradientUnits="userSpaceOnUse">
<stop stop-color="white"/>
<stop offset="1" stop-color="white" stop-opacity="0"/>
</linearGradient>
</defs>
</svg>
