<svg width="42" height="42" viewBox="0 0 42 42" fill="none" xmlns="http://www.w3.org/2000/svg">
<circle cx="21" cy="21" r="21" fill="#067CC1"/>
<g clip-path="url(#clip0_780_413)">
<path d="M31.125 11.3125C31.0504 11.3125 30.9789 11.3421 30.9261 11.3949C30.8734 11.4476 30.8438 11.5192 30.8438 11.5938V18.1562C30.8437 18.2308 30.8734 18.3024 30.9261 18.3551C30.9789 18.4079 31.0504 18.4375 31.125 18.4375C31.1996 18.4375 31.2711 18.4079 31.3239 18.3551C31.3766 18.3024 31.4062 18.2308 31.4062 18.1562V11.5938C31.4062 11.5192 31.3766 11.4476 31.3239 11.3949C31.2711 11.3421 31.1996 11.3125 31.125 11.3125Z" fill="white"/>
<path d="M10.5938 11.5938V18.1562C10.5938 18.2308 10.6234 18.3024 10.6761 18.3551C10.7289 18.4079 10.8004 18.4375 10.875 18.4375C10.9496 18.4375 11.0211 18.4079 11.0739 18.3551C11.1266 18.3024 11.1562 18.2308 11.1562 18.1562V11.5938C11.1562 11.5192 11.1266 11.4476 11.0739 11.3949C11.0211 11.3421 10.9496 11.3125 10.875 11.3125C10.8004 11.3125 10.7289 11.3421 10.6761 11.3949C10.6234 11.4476 10.5938 11.5192 10.5938 11.5938Z" fill="white"/>
<path d="M31.125 13.4688C32.0052 13.4688 32.7188 12.7552 32.7188 11.875C32.7188 10.9948 32.0052 10.2812 31.125 10.2812C30.2448 10.2812 29.5312 10.9948 29.5312 11.875C29.5312 12.7552 30.2448 13.4688 31.125 13.4688Z" fill="white"/>
<path d="M21 11.5C14.5159 11.5 9.28125 16.4074 9.28125 22.846V27.1291C9.28125 28.0314 9.63969 28.8967 10.2777 29.5348C10.9158 30.1728 11.7811 30.5313 12.6834 30.5313H17.9085C17.989 30.5307 18.0669 30.5592 18.128 30.6116C18.1891 30.664 18.2292 30.7367 18.2409 30.8163C18.2971 31.3847 18.1794 31.9568 17.9034 32.4569C17.8335 32.5999 17.8075 32.7604 17.8287 32.9182C17.8499 33.076 17.9174 33.224 18.0226 33.3435C18.1277 33.463 18.2659 33.5487 18.4198 33.5898C18.5736 33.6309 18.7361 33.6255 18.8869 33.5744C20.3559 33.067 22.1743 32.1732 23.2731 30.6723C23.3041 30.6289 23.3449 30.5936 23.3923 30.5691C23.4396 30.5445 23.492 30.5316 23.5453 30.5313H29.3166C30.2189 30.5313 31.0842 30.1728 31.7223 29.5348C32.3603 28.8967 32.7188 28.0314 32.7188 27.1291V22.846C32.7197 16.4074 27.4841 11.5 21 11.5Z" fill="white"/>
<path d="M13.4062 28.0938C12.9587 28.0938 12.5294 27.916 12.213 27.5995C11.8965 27.2831 11.7187 26.8538 11.7187 26.4063V22.75C11.6347 17.7303 16.0413 13.856 21 13.8438C25.9738 13.8314 30.3669 17.7134 30.2812 22.75V26.4063C30.2812 26.8538 30.1034 27.2831 29.787 27.5995C29.4705 27.916 29.0413 28.0938 28.5937 28.0938H13.4062Z" fill="#067CC1"/>
<path d="M10.875 13.4688C11.7552 13.4688 12.4688 12.7552 12.4688 11.875C12.4688 10.9948 11.7552 10.2812 10.875 10.2812C9.9948 10.2812 9.28125 10.9948 9.28125 11.875C9.28125 12.7552 9.9948 13.4688 10.875 13.4688Z" fill="white"/>
<path d="M16.3125 21.5312C17.0892 21.5312 17.7188 20.9017 17.7188 20.125C17.7188 19.3483 17.0892 18.7188 16.3125 18.7188C15.5358 18.7188 14.9062 19.3483 14.9062 20.125C14.9062 20.9017 15.5358 21.5312 16.3125 21.5312Z" fill="white"/>
<path d="M25.6875 21.5312C26.4642 21.5312 27.0938 20.9017 27.0938 20.125C27.0938 19.3483 26.4642 18.7188 25.6875 18.7188C24.9108 18.7188 24.2812 19.3483 24.2812 20.125C24.2812 20.9017 24.9108 21.5312 25.6875 21.5312Z" fill="white"/>
<path d="M18.4125 22.8438C18.329 22.8437 18.2467 22.8623 18.1713 22.898C18.0959 22.9338 18.0294 22.9858 17.9767 23.0504C17.9239 23.1151 17.8862 23.1906 17.8662 23.2716C17.8462 23.3526 17.8445 23.437 17.8612 23.5187C18.0158 24.2364 18.4117 24.8794 18.9828 25.3406C19.5539 25.8018 20.2659 26.0534 21 26.0534C21.7341 26.0534 22.446 25.8018 23.0171 25.3406C23.5883 24.8794 23.9841 24.2364 24.1387 23.5187C24.1554 23.437 24.1537 23.3526 24.1337 23.2716C24.1138 23.1906 24.076 23.1151 24.0233 23.0504C23.9705 22.9858 23.904 22.9338 23.8286 22.898C23.7533 22.8623 23.6709 22.8437 23.5875 22.8438H18.4125Z" fill="white"/>
<path d="M23.3568 25.0226C23.0564 25.3478 22.6919 25.6073 22.2862 25.7847C21.8806 25.9622 21.4427 26.0538 20.9999 26.0538C20.5572 26.0538 20.1192 25.9622 19.7136 25.7847C19.308 25.6073 18.9435 25.3478 18.6431 25.0226C18.9497 24.708 19.3163 24.4581 19.721 24.2874C20.1258 24.1167 20.5607 24.0288 20.9999 24.0288C21.4392 24.0288 21.8741 24.1167 22.2788 24.2874C22.6836 24.4581 23.0501 24.708 23.3568 25.0226Z" fill="#D0D0D0"/>
</g>
<defs>
<clipPath id="clip0_780_413">
<rect width="24" height="24" fill="white" transform="translate(9 10)"/>
</clipPath>
</defs>
</svg>
