<svg width="557" height="470" viewBox="0 0 557 470" fill="none" xmlns="http://www.w3.org/2000/svg">
<g clip-path="url(#clip0_809_2987)">
<path d="M88.7147 122.509L131.812 214.324L204.821 199.244L201.069 187.787L140.496 201.162L102.062 122.243C101.687 121.443 101.097 120.751 100.347 120.218C98.417 118.832 94.3431 116.754 89.7332 119.418C88.6611 120.005 88.1787 121.39 88.7147 122.509Z" fill="#647BB4"/>
<path d="M313.689 469.22H173.996L173.996 259.585H313.689V469.22Z" fill="white" fill-opacity="0.2"/>
<path d="M180.967 344.613L186.596 361.346C186.596 361.346 177.912 371.524 178.341 383.247C178.341 383.247 213.612 366.195 213.13 363.371C212.647 360.493 200.64 334.169 200.64 334.169L180.967 344.613Z" fill="#22273D"/>
<path d="M90.9662 323.138L80.6742 337.473C80.6742 337.473 67.2732 336.46 57.9997 343.601C57.9997 343.601 92.5207 362.039 94.6113 360.014C96.6482 357.989 111.121 332.837 111.121 332.837L90.9662 323.138Z" fill="#22273D"/>
<path d="M136.369 223.756C134.01 219.227 77.1898 318.129 78.1011 320.101L120.877 341.629L149.77 295.002L136.369 223.756Z" fill="#272727" stroke="#3A3A3A" stroke-width="1.9236" stroke-miterlimit="10"/>
<path d="M210.235 195.993C210.235 195.993 122.807 203.72 127.792 240.915C127.792 240.915 125.166 268.838 168.907 351.115L213.184 335.981L176.572 260.152L285.067 258.447C285.067 258.447 323.447 246.137 311.333 194.981L261.106 184.27L210.235 195.993Z" fill="#272727" stroke="#3A3A3A" stroke-width="1.9236" stroke-miterlimit="10"/>
<path d="M266.251 105.35C266.251 105.35 268.824 120.218 271.397 122.775C273.97 125.333 282.226 125.333 282.226 125.333L297.181 113.557L286.353 97.6769L266.251 105.35Z" fill="#FEC6A6" stroke="#3A3A3A" stroke-width="0.9618" stroke-miterlimit="10"/>
<path d="M260.822 106.064C246.337 102.384 237.595 87.7275 241.297 73.3275C244.998 58.9275 259.742 50.2371 274.227 53.917C288.713 57.5969 297.455 72.2535 293.753 86.6535C290.051 101.054 275.308 109.744 260.822 106.064Z" fill="#FEC6A6"/>
<path d="M267.538 53.3413C252.743 53.3413 240.736 65.2778 240.736 79.9853C240.736 94.6927 252.743 106.629 267.538 106.629C282.333 106.629 294.34 94.6927 294.34 79.9853C294.394 65.2778 282.333 53.3413 267.538 53.3413ZM267.538 52.8084C282.654 52.8084 294.876 64.9581 294.876 79.9853C294.876 95.0125 282.654 107.162 267.538 107.162C252.422 107.162 240.2 95.0125 240.2 79.9853C240.253 64.9581 252.475 52.8084 267.538 52.8084Z" fill="#3A3A3A"/>
<path d="M167.191 190.664C164.993 191.57 163.546 196.739 161.724 198.498C159.901 200.256 157.221 198.817 160.008 194.714M167.406 196.206C164.672 200.256 166.655 202.121 168.746 200.736C169.657 200.096 170.89 198.285 171.908 196.473C173.624 193.489 176.572 191.464 180.003 190.931C186.596 189.972 198.978 189.705 219.026 194.981C251.725 203.56 272.362 202.761 278.259 169.829L255.96 164.18C255.691 164.82 251.778 181.179 251.778 181.179C251.778 181.179 191.367 174.305 182.361 174.305C173.034 174.305 158.454 187.094 156.685 193.915C156.363 195.194 156.31 198.391 159.901 194.768C160.866 193.808 161.724 191.357 164.457 189.226M163.6 195.673C160.866 199.723 162.742 201.482 164.94 200.203C167.03 198.977 167.352 193.649 170.515 191.304" fill="#FEC6A6"/>
<path d="M167.191 190.664C164.993 191.57 163.546 196.739 161.724 198.498C159.901 200.256 157.221 198.817 160.008 194.714M167.406 196.206C164.672 200.256 166.655 202.121 168.746 200.736C169.657 200.096 170.89 198.285 171.908 196.473C173.624 193.489 176.572 191.464 180.003 190.931C186.596 189.972 198.978 189.705 219.026 194.981C251.725 203.56 272.362 202.761 278.259 169.829L255.96 164.18C255.691 164.82 251.778 181.179 251.778 181.179C251.778 181.179 191.367 174.305 182.361 174.305C173.034 174.305 158.454 187.094 156.685 193.915C156.363 195.194 156.31 198.391 159.901 194.768C160.866 193.808 161.724 191.357 164.457 189.226M163.6 195.673C160.866 199.723 162.742 201.482 164.94 200.203C167.03 198.977 167.352 193.649 170.515 191.304" stroke="#3A3A3A" stroke-width="1.9236" stroke-miterlimit="10"/>
<path d="M143.552 172.973C139.424 173.985 136.851 179.261 134.278 179.634C131.544 180.06 130.312 177.449 134.814 174.518M131.544 172.067C127.095 175.051 129.132 177.609 131.705 176.543C134.278 175.531 137.87 170.895 140.496 170.895M131.544 172.067C127.095 175.051 129.132 177.609 131.705 176.543C134.278 175.531 137.87 170.895 140.496 170.895M138.406 176.596C133.957 179.58 135.189 182.245 137.87 181.712C139.049 181.499 141.032 180.113 142.855 178.728C145.803 176.436 149.663 175.584 153.308 176.49C160.33 178.195 172.927 183.044 190.991 196.579C220.366 218.587 241.54 226.314 261.105 195.567L241.004 180.7C240.468 181.232 232.749 191.997 232.749 191.997C232.749 191.997 171.694 164.447 162.635 160.717C153.254 156.88 133.26 163.807 128.596 169.935C127.739 171.108 126.345 174.305 131.491 172.12C132.885 171.534 134.761 169.456 138.352 168.443" fill="#FEC6A6"/>
<path d="M143.552 172.973C139.424 173.985 136.851 179.261 134.278 179.634C131.544 180.06 130.312 177.449 134.814 174.518M131.544 172.067C127.095 175.051 129.132 177.609 131.705 176.543C134.278 175.531 137.87 170.895 140.496 170.895M138.406 176.596C133.957 179.58 135.189 182.245 137.87 181.712C139.049 181.499 141.032 180.113 142.855 178.728C145.803 176.436 149.663 175.584 153.308 176.49C160.33 178.195 172.927 183.044 190.991 196.579C220.366 218.587 241.54 226.314 261.105 195.567L241.004 180.7C240.468 181.232 232.749 191.997 232.749 191.997C232.749 191.997 171.694 164.447 162.635 160.717C153.254 156.88 133.26 163.807 128.596 169.935C127.739 171.108 126.345 174.305 131.491 172.12C132.885 171.534 134.761 169.456 138.352 168.443" stroke="#3A3A3A" stroke-width="1.9236" stroke-miterlimit="10"/>
<path d="M433.013 468.947H332.505V296.241H433.013V468.947Z" fill="white" fill-opacity="0.2"/>
<path d="M386.485 322.073C383.732 322.073 381.5 319.854 381.5 317.117C381.5 314.38 383.732 312.161 386.485 312.161C389.239 312.161 391.471 314.38 391.471 317.117C391.471 319.854 389.239 322.073 386.485 322.073Z" fill="#E0EBF2"/>
<path d="M416.143 330.546C414.196 328.611 414.196 325.473 416.143 323.538C418.09 321.603 421.246 321.603 423.193 323.538C425.14 325.473 425.14 328.611 423.193 330.546C421.246 332.482 418.09 332.482 416.143 330.546Z" fill="#E0EBF2"/>
<path d="M393.293 351.381C390.54 351.381 388.308 349.162 388.308 346.425C388.308 343.688 390.54 341.469 393.293 341.469C396.046 341.469 398.278 343.688 398.278 346.425C398.278 349.162 396.046 351.381 393.293 351.381Z" fill="#E0EBF2"/>
<path d="M398.87 379.29C396.923 377.355 396.923 374.217 398.87 372.282C400.817 370.346 403.973 370.346 405.92 372.282C407.867 374.217 407.867 377.355 405.92 379.29C403.973 381.226 400.817 381.226 398.87 379.29Z" fill="#E0EBF2"/>
<path d="M406.121 412.206C404.174 410.271 404.174 407.133 406.121 405.198C408.068 403.262 411.224 403.262 413.171 405.198C415.118 407.133 415.118 410.271 413.171 412.206C411.224 414.141 408.068 414.141 406.121 412.206Z" fill="#E0EBF2"/>
<path d="M388.308 436.215C385.555 436.215 383.323 433.997 383.323 431.26C383.323 428.523 385.555 426.304 388.308 426.304C391.061 426.304 393.293 428.523 393.293 431.26C393.293 433.997 391.061 436.215 388.308 436.215Z" fill="#E0EBF2"/>
<path d="M407.757 445.325C406.71 442.794 407.924 439.898 410.471 438.857C413.017 437.815 415.93 439.023 416.978 441.554C418.025 444.085 416.811 446.981 414.264 448.023C411.718 449.064 408.805 447.857 407.757 445.325Z" fill="#E0EBF2"/>
<path d="M372.085 403.633C370.138 401.698 370.138 398.56 372.085 396.625C374.032 394.689 377.188 394.689 379.135 396.625C381.082 398.56 381.082 401.698 379.135 403.633C377.188 405.568 374.032 405.568 372.085 403.633Z" fill="#E0EBF2"/>
<path d="M370.619 372.59C367.865 372.59 365.633 370.371 365.633 367.634C365.633 364.897 367.865 362.678 370.619 362.678C373.372 362.678 375.604 364.897 375.604 367.634C375.604 370.371 373.372 372.59 370.619 372.59Z" fill="#E0EBF2"/>
<path d="M343.872 360.265C341.73 358.546 341.395 355.426 343.125 353.296C344.854 351.166 347.993 350.834 350.135 352.553C352.277 354.272 352.612 357.393 350.882 359.522C349.153 361.652 346.014 361.985 343.872 360.265Z" fill="#E0EBF2"/>
<path d="M343.887 396.348C341.745 394.629 341.41 391.509 343.14 389.379C344.869 387.249 348.008 386.917 350.15 388.636C352.293 390.355 352.627 393.476 350.898 395.605C349.168 397.735 346.029 398.068 343.887 396.348Z" fill="#E0EBF2"/>
<path d="M359.254 425.824C356.501 425.824 354.269 423.605 354.269 420.868C354.269 418.131 356.501 415.913 359.254 415.913C362.008 415.913 364.24 418.131 364.24 420.868C364.24 423.605 362.008 425.824 359.254 425.824Z" fill="#E0EBF2"/>
<path d="M345.778 447.378C343.114 446.687 341.518 443.979 342.214 441.331C342.909 438.683 345.633 437.096 348.297 437.788C350.961 438.479 352.557 441.186 351.861 443.835C351.166 446.483 348.442 448.069 345.778 447.378Z" fill="#E0EBF2"/>
<path d="M360.747 338.696C358.8 336.76 358.8 333.622 360.747 331.687C362.694 329.752 365.85 329.752 367.797 331.687C369.744 333.622 369.744 336.76 367.797 338.696C365.85 340.631 362.694 340.631 360.747 338.696Z" fill="#E0EBF2"/>
<path d="M354.698 69.2211C354.698 69.2211 383.055 89.2041 398.01 55.3662C412.966 21.5283 367.938 59.576 408.356 77.161C427.117 83.2891 434.354 59.203 442.073 46.9467C449.792 34.6372 462.174 39.7528 464.265 59.7358C466.892 83.5023 481.15 69.5941 488.816 60.1089C497.66 49.1848 514.117 47.7993 524.409 57.4977C524.677 57.7109 524.891 57.9773 525.159 58.1905" stroke="white" stroke-opacity="0.2" stroke-width="1.9236" stroke-miterlimit="10" stroke-linecap="round"/>
<path d="M556.464 215.55C537.703 209.422 530.466 233.508 522.747 245.764C515.028 258.074 502.645 252.958 500.555 232.975C497.928 209.209 483.67 223.117 476.004 232.602C467.16 243.526 450.703 244.912 440.411 235.213C440.143 235 439.929 234.734 439.661 234.52" stroke="white" stroke-opacity="0.2" stroke-width="1.9236" stroke-miterlimit="10" stroke-linecap="round"/>
<path d="M4.7566e-05 469.254H556.786" stroke="#88BFDE" stroke-width="2" stroke-miterlimit="10"/>
<path d="M350.785 123.202C330.576 130.875 312.941 133.113 301.845 121.23L279.17 91.4955C281.743 93.0408 288.444 81.7438 281.743 79.1859C275.043 76.6281 273.488 83.2891 273.488 83.2891C259.551 85.3141 253.923 69.9671 253.923 69.9671C247.758 80.7313 240.522 78.7063 240.522 78.7063C243.255 50.7834 269.897 49.0782 287.157 56.3787C286.031 54.8333 285.388 53.0215 285.388 50.9966C285.388 45.6145 290.213 41.2449 296.216 41.2449C302.22 41.2449 307.044 45.6145 307.044 50.9966C307.044 56.3787 302.22 60.7483 296.216 60.7483C295.787 60.7483 295.305 60.7483 294.876 60.695C299.325 63.9989 302.113 67.9955 301.898 72.0453C301.523 78.3866 308.599 77.161 308.599 77.161C328.164 75.1361 328.7 88.9376 328.7 88.9376C330.255 99.7018 336.955 100.235 336.955 100.235C349.445 103.112 353.841 109.454 355.288 114.409C356.306 118.033 354.323 121.87 350.785 123.202Z" fill="#272727"/>
<path d="M269.414 121.23C268.985 121.177 268.556 131.461 268.396 135.511C268.342 136.524 267.913 137.483 267.109 138.176C262.392 142.279 245.131 158.052 236.555 176.383C235.804 177.982 236.34 179.9 237.788 180.913L261.749 197.965C262.338 198.391 263.089 198.658 263.839 198.658L330.201 200.523C332.613 200.576 334.436 198.391 333.953 196.046C331.166 182.511 321.571 142.279 302.595 119.418C302.434 119.258 302.327 119.045 302.22 118.832L300.022 114.782C299.057 112.971 296.806 112.278 294.983 113.29C289.301 116.328 277.401 121.976 269.414 121.23Z" fill="#43BAFF"/>
<path d="M299.808 125.333V135.724" stroke="white" stroke-width="4.8089" stroke-miterlimit="10" stroke-linecap="round"/>
<path d="M274.989 135.671H285.388" stroke="white" stroke-width="4.8089" stroke-miterlimit="10" stroke-linecap="round"/>
<path d="M301.523 151.018L293.911 143.878" stroke="white" stroke-width="4.8089" stroke-miterlimit="10" stroke-linecap="round"/>
<path d="M277.669 148.94L278.58 159.278" stroke="white" stroke-width="4.8089" stroke-miterlimit="10" stroke-linecap="round"/>
<path d="M265.769 149.206L256.442 153.842" stroke="white" stroke-width="4.8089" stroke-miterlimit="10" stroke-linecap="round"/>
<path d="M260.033 167.964L249.795 165.885" stroke="white" stroke-width="4.8089" stroke-miterlimit="10" stroke-linecap="round"/>
<path d="M266.198 180.593L260.194 189.119" stroke="white" stroke-width="4.8089" stroke-miterlimit="10" stroke-linecap="round"/>
<path d="M294.126 120.484L284.799 125.173" stroke="white" stroke-width="4.8089" stroke-miterlimit="10" stroke-linecap="round"/>
<path d="M316.693 155.921L309.671 163.594" stroke="white" stroke-width="4.8089" stroke-miterlimit="10" stroke-linecap="round"/>
<path d="M298.253 162.795L287.908 161.782" stroke="white" stroke-width="4.8089" stroke-miterlimit="10" stroke-linecap="round"/>
<path d="M287.05 170.628L278.473 176.543" stroke="white" stroke-width="4.8089" stroke-miterlimit="10" stroke-linecap="round"/>
<path d="M317.979 172.173L309.403 178.088" stroke="white" stroke-width="4.8089" stroke-miterlimit="10" stroke-linecap="round"/>
<path d="M324.894 178.142L325.162 188.48" stroke="white" stroke-width="4.8089" stroke-miterlimit="10" stroke-linecap="round"/>
<path d="M304.364 189.119L314.817 188.746" stroke="white" stroke-width="4.8089" stroke-miterlimit="10" stroke-linecap="round"/>
<path d="M283.941 192.743L289.837 184.163" stroke="white" stroke-width="4.8089" stroke-miterlimit="10" stroke-linecap="round"/>
<path d="M278.366 82.7562C279.867 84.8877 279.009 86.9127 276.811 87.9784C276.168 88.2982 276.651 89.2574 277.294 88.8843C279.545 87.3923 280.403 84.8877 278.366 82.7562Z" fill="#3A3A3A"/>
<path d="M258.8 105.35C262.446 105.19 265.983 102.846 266.841 99.2222C266.841 99.1689 266.787 99.1156 266.734 99.2222C265.769 102.686 262.285 104.871 258.747 104.871C258.425 104.817 258.425 105.35 258.8 105.35Z" fill="#3A3A3A"/>
<path d="M50.763 259.353C46.9144 259.353 43.7945 256.251 43.7945 252.425C43.7945 248.599 46.9144 245.498 50.763 245.498C54.6116 245.498 57.7316 248.599 57.7316 252.425C57.7316 256.251 54.6116 259.353 50.763 259.353Z" stroke="white" stroke-opacity="0.2" stroke-width="1.8549" stroke-miterlimit="10" stroke-linecap="round"/>
<path d="M518.351 24.6191C514.503 24.6191 511.383 21.5175 511.383 17.6916C511.383 13.8657 514.503 10.7642 518.351 10.7642C522.2 10.7642 525.32 13.8657 525.32 17.6916C525.32 21.5175 522.2 24.6191 518.351 24.6191Z" stroke="white" stroke-opacity="0.2" stroke-width="1.8549" stroke-miterlimit="10" stroke-linecap="round"/>
<path d="M267.056 109.347C267.056 109.347 273.756 109.187 277.884 105.084C277.884 105.084 270.165 107.642 266.787 106.896L267.056 109.347Z" fill="#3A3A3A"/>
<path d="M163.117 1.59864C141.086 1.59864 123.129 19.4501 123.129 41.3515C123.129 63.2528 141.086 81.1043 163.117 81.1043C185.149 81.1043 203.106 63.2528 203.106 41.3515C203.106 19.4501 185.149 1.59864 163.117 1.59864ZM163.117 0C186.113 0 204.714 18.4909 204.714 41.3515C204.714 64.212 186.113 82.7029 163.117 82.7029C140.121 82.7029 121.52 64.212 121.52 41.3515C121.52 18.4909 140.121 0 163.117 0Z" stroke="white" stroke-opacity="0.2" stroke-width="1.8549" stroke-miterlimit="10" stroke-linecap="round"/>
<path d="M163.117 11.5102V41.3515" stroke="white" stroke-opacity="0.2" stroke-width="3" stroke-miterlimit="10" stroke-linecap="round" stroke-linejoin="round"/>
<path d="M148.376 55.9524L163.117 41.3515" stroke="white" stroke-opacity="0.2" stroke-width="3" stroke-miterlimit="10" stroke-linecap="round" stroke-linejoin="round"/>
<path d="M160.008 41.3515C160.008 43.0567 161.402 44.4422 163.117 44.4422C164.833 44.4422 166.226 43.0567 166.226 41.3515C166.226 39.6463 164.833 38.2608 163.117 38.2608C161.402 38.2608 160.008 39.6463 160.008 41.3515Z" fill="white"/>
<path d="M160.508 41.3515C160.508 42.7778 161.675 43.9422 163.117 43.9422C164.559 43.9422 165.726 42.7778 165.726 41.3515C165.726 39.9252 164.559 38.7608 163.117 38.7608C161.675 38.7608 160.508 39.9252 160.508 41.3515Z" stroke="white" stroke-opacity="0.4"/>
<path d="M150.189 468.819H50.8513L50.8513 360.176H150.189V468.819Z" fill="white" fill-opacity="0.2"/>
<path d="M117.055 429.734C115.108 427.799 115.108 424.661 117.055 422.726C119.001 420.79 122.158 420.79 124.105 422.726C126.051 424.661 126.051 427.799 124.105 429.734C122.158 431.669 119.001 431.669 117.055 429.734Z" fill="#E0EBF2"/>
<path d="M134.793 399.031C132.847 397.095 132.847 393.957 134.793 392.022C136.74 390.087 139.897 390.087 141.844 392.022C143.79 393.957 143.79 397.095 141.844 399.031C139.897 400.966 136.74 400.966 134.793 399.031Z" fill="#E0EBF2"/>
<path d="M93.6803 449.208C90.9271 449.208 88.6952 446.989 88.6952 444.252C88.6952 441.515 90.9271 439.296 93.6803 439.296C96.4336 439.296 98.6655 441.515 98.6655 444.252C98.6655 446.989 96.4336 449.208 93.6803 449.208Z" fill="#E0EBF2"/>
<path d="M120.157 457.098C119.109 454.567 120.324 451.671 122.87 450.63C125.417 449.588 128.33 450.796 129.378 453.327C130.425 455.858 129.21 458.754 126.664 459.796C124.118 460.837 121.205 459.63 120.157 457.098Z" fill="#E0EBF2"/>
<path d="M67.3859 417.925C65.4391 415.99 65.439 412.852 67.3859 410.917C69.3327 408.981 72.4891 408.981 74.4359 410.917C76.3827 412.852 76.3827 415.99 74.4359 417.925C72.4891 419.86 69.3327 419.86 67.3859 417.925Z" fill="#E0EBF2"/>
<path d="M98.4106 400.791C95.6573 400.791 93.4254 398.572 93.4254 395.835C93.4254 393.098 95.6573 390.879 98.4106 390.879C101.164 390.879 103.396 393.098 103.396 395.835C103.396 398.572 101.164 400.791 98.4106 400.791Z" fill="#E0EBF2"/>
<path d="M127.975 378.354C125.222 378.354 122.99 376.135 122.99 373.398C122.99 370.661 125.222 368.442 127.975 368.442C130.729 368.442 132.961 370.661 132.961 373.398C132.961 376.135 130.729 378.354 127.975 378.354Z" fill="#E0EBF2"/>
<path d="M65.3725 380.448C63.2303 378.729 62.8957 375.609 64.6253 373.479C66.3549 371.349 69.4936 371.017 71.6359 372.736C73.7782 374.456 74.1128 377.576 72.3832 379.705C70.6536 381.835 67.5148 382.168 65.3725 380.448Z" fill="#E0EBF2"/>
<path d="M66.4806 457.474C63.7274 457.474 61.4955 455.256 61.4955 452.519C61.4955 449.782 63.7274 447.563 66.4806 447.563C69.2339 447.563 71.4658 449.782 71.4658 452.519C71.4658 455.256 69.2339 457.474 66.4806 457.474Z" fill="#E0EBF2"/>
</g>
<defs>
<clipPath id="clip0_809_2987">
<rect width="557" height="470" fill="white" transform="matrix(-1 0 0 1 557 0)"/>
</clipPath>
</defs>
</svg>
