<svg width="516" height="141" viewBox="0 0 516 141" fill="none" xmlns="http://www.w3.org/2000/svg">
<mask id="mask0_161_52" style="mask-type:luminance" maskUnits="userSpaceOnUse" x="0" y="0" width="516" height="141">
<path d="M515.809 0H0V141H515.809V0Z" fill="white"/>
</mask>
<g mask="url(#mask0_161_52)">
<path fill-rule="evenodd" clip-rule="evenodd" d="M64.1269 1.82861C87.3216 1.82861 106.239 20.7463 106.239 43.941C106.239 52.7153 103.529 60.8818 98.9064 67.6375C93.0596 76.1805 83.6105 83.6945 83.6105 94.376V107.118H44.6404V94.376C44.6404 83.6945 35.1913 76.1805 29.3446 67.6375C24.7218 60.879 22.0117 52.7153 22.0117 43.941C22.0117 20.7463 40.9322 1.82861 64.1269 1.82861Z" fill="#143C68"/>
<path fill-rule="evenodd" clip-rule="evenodd" d="M44.6484 113.044V118.953H83.6185V113.044H44.6484ZM74.3786 130.763C74.3786 136.406 69.7753 141.01 64.1321 141.01C58.4889 141.01 53.8884 136.406 53.8884 130.763H44.6484V124.858H83.6185V130.763H74.3786Z" fill="#143C68"/>
<path d="M152.48 50.874H166.352V131.792H152.48V50.874Z" fill="#143C68"/>
<path d="M188.668 50.874L236.061 101.853V50.874H249.932V131.792H245.309L197.799 80.699V131.792H183.928V50.874H188.668Z" fill="#143C68"/>
<path d="M275.943 112.601C280.914 119.421 289.234 121.501 297.211 121.501C303.339 121.501 312.47 119.19 312.47 111.561C312.47 96.0704 267.503 97.6903 267.503 71.2195C267.503 55.3828 280.68 47.5229 295.248 47.5229C305.765 47.5229 316.17 52.0314 323.681 59.4284L314.55 69.5996C309.233 64.2826 302.299 61.1626 294.785 61.1626C287.848 61.1626 281.145 63.7054 281.145 71.6824C281.145 85.5534 326.11 83.7049 326.11 112.024C326.11 127.747 310.622 135.144 296.751 135.144C284.842 135.144 272.591 130.867 265.191 121.041L275.943 112.601Z" fill="#143C68"/>
<path d="M449.229 63.8194V50.874H515.813V63.8194H489.342V131.789H475.471V63.8194H449.229Z" fill="#143C68"/>
<path d="M423.56 52.0366H435.12V130.643H423.56V52.0366Z" fill="#3BC4B6" stroke="#3BC4B6" stroke-width="2.31145"/>
<path d="M395.868 130.64L393.275 124.991H393.369L392.607 123.348L383.091 102.855L382.78 102.187H382.736L371.787 78.3683L370.741 76.0939L369.688 78.3649L357.946 103.689L357.85 103.695L357.565 104.329L350.829 119.311H350.807L350.498 119.985L345.607 130.64H333.7L370.323 50.8789H371.152L407.661 130.64H395.868Z" fill="#3BC4B6" stroke="#3BC4B6" stroke-width="2.31145"/>
<path d="M389.923 120.468L391.467 123.834H391.554L382.038 103.341H381.99L383.911 107.52" fill="#40E0D0"/>
<path d="M357.439 107.52L358.702 104.798L358.615 104.804L351.572 120.468" fill="#40E0D0"/>
<path d="M124.676 40.3497C124.676 42.0422 126.048 43.4167 127.743 43.4167C129.438 43.4167 130.81 42.0449 130.81 40.3497V19.9097C130.81 19.7174 130.791 19.5278 130.757 19.3465C130.757 19.3354 130.757 19.327 130.752 19.3159C130.715 19.1319 130.662 18.9534 130.593 18.7833C130.587 18.7694 130.584 18.7582 130.579 18.7443C130.506 18.5686 130.417 18.4014 130.317 18.2452C130.311 18.2341 130.305 18.2257 130.297 18.2145C130.071 17.8744 129.778 17.5816 129.438 17.3558C129.427 17.3474 129.416 17.3419 129.405 17.3363C129.249 17.2359 129.081 17.1467 128.906 17.0742C128.892 17.0686 128.881 17.0658 128.867 17.0603C128.697 16.9933 128.518 16.9376 128.334 16.9013C128.323 16.9013 128.315 16.9013 128.304 16.8957C128.12 16.8623 127.933 16.8428 127.74 16.8428H107.3C105.608 16.8428 104.233 18.2145 104.233 19.9097C104.233 21.6049 105.605 22.9767 107.3 22.9767H120.338L84.4625 58.7377C83.5926 59.6076 82.0006 59.6801 81.0526 58.891L58.2454 39.8841C54.8941 37.0932 49.6579 37.3302 46.577 40.4139L9.31324 77.6776C8.11434 78.8737 8.11434 80.8171 9.31324 82.0132C9.9127 82.6127 10.6962 82.911 11.4796 82.911C12.2631 82.911 13.0494 82.6127 13.646 82.0132L50.9126 44.7467C51.7825 43.8768 53.3745 43.8043 54.3225 44.5933L77.1297 63.6002C80.481 66.3912 85.7144 66.1542 88.7981 63.0705L124.673 27.3095V40.347L124.676 40.3497Z" fill="#3BC4B6" stroke="#3BC4B6" stroke-width="2.31145" stroke-miterlimit="10"/>
</g>
</svg>
