<svg width="347" height="250" viewBox="0 0 347 250" fill="none" xmlns="http://www.w3.org/2000/svg">
<g clip-path="url(#clip0_117_7107)">
<path d="M198.557 218.961L181.241 249.962L243.217 215.036L198.557 218.961Z" fill="#3CB7FF"/>
<g opacity="0.5">
<path d="M243.217 215.036L198.557 218.961L194.237 226.709L243.217 215.036Z" fill="#3BB7FF"/>
</g>
<path d="M100.901 231.332L243.217 215.036V183.326L100.901 231.332Z" fill="#067CC1"/>
<path d="M288.649 175.955L100.901 231.332V182.269L288.649 175.955Z" fill="#3CB7FF"/>
<g opacity="0.5">
<path d="M288.649 175.955L100.901 182.269V211.92L288.649 175.955Z" fill="#3CB7FF"/>
</g>
<path d="M302.895 5.20129L35.4319 43.7031L68.2995 206.681L288.649 175.955L302.895 5.20129Z" fill="#067CC1"/>
<path d="M320.165 22.8115L21.4062 64.6406L35.432 132.113L310 94.3189L320.165 22.8115Z" fill="#05283D"/>
<path d="M48.1817 135.935L37.0496 137.797L38.9119 148.93L50.044 147.067L48.1817 135.935Z" fill="#05283D"/>
<path d="M25.9717 119.829L10.2344 122.462L12.8671 138.199L28.6044 135.566L25.9717 119.829Z" fill="#05283D"/>
<path d="M28.2495 140.635L19.7826 142.051L21.199 150.518L29.666 149.102L28.2495 140.635Z" fill="#067CC1"/>
<path d="M345.33 5.18493L334.083 6.12512L335.023 17.3724L346.27 16.4322L345.33 5.18493Z" fill="#067CC1"/>
<path d="M327.922 0.328955L312.022 1.65808L313.351 17.5581L329.251 16.229L327.922 0.328955Z" fill="#05283D"/>
<path d="M333.803 20.1653L325.248 20.8804L325.963 29.4349L334.518 28.7198L333.803 20.1653Z" fill="#05283D"/>
<path d="M302.895 53.0505C302.215 53.0505 301.627 52.5541 301.535 51.8648C301.425 51.1111 301.958 50.4126 302.711 50.3115L341.103 44.9255C341.857 44.8152 342.555 45.3483 342.656 46.1019C342.767 46.8556 342.233 47.5541 341.48 47.6553L303.088 53.0413C303.024 53.0505 302.96 53.0505 302.895 53.0505Z" fill="#067CC1"/>
<path d="M302.895 61.3409C302.215 61.3409 301.627 60.8446 301.535 60.1552C301.425 59.4015 301.958 58.703 302.711 58.6019L336.029 53.9328C336.783 53.8225 337.482 54.3556 337.583 55.1093C337.693 55.8629 337.16 56.5615 336.406 56.6626L303.088 61.3317C303.024 61.3409 302.96 61.3409 302.895 61.3409Z" fill="#067CC1"/>
<path d="M302.895 69.6405C302.215 69.6405 301.627 69.1442 301.535 68.4548C301.425 67.7012 301.958 67.0026 302.711 66.9015L328.511 63.2802C329.265 63.1699 329.963 63.703 330.064 64.4567C330.175 65.2104 329.642 65.9089 328.888 66.01L303.088 69.6313C303.024 69.6313 302.96 69.6405 302.895 69.6405Z" fill="#067CC1"/>
<path d="M1.65442 98.9329C0.974269 98.9329 0.386034 98.4366 0.294122 97.7473C0.183828 96.9936 0.716917 96.295 1.47059 96.1939L39.8621 90.8079C40.6158 90.6976 41.3143 91.2307 41.4154 91.9844C41.5257 92.7381 40.9927 93.4366 40.239 93.5377L1.84743 98.9237C1.78309 98.9329 1.71875 98.9329 1.65442 98.9329Z" fill="#067CC1"/>
<path d="M7.62866 106.387C6.94851 106.387 6.36028 105.891 6.26837 105.201C6.15807 104.448 6.69116 103.749 7.44484 103.648L39.8621 99.0983C40.6158 98.988 41.3143 99.5211 41.4154 100.275C41.5257 101.028 40.9926 101.727 40.239 101.828L7.82167 106.378C7.75734 106.387 7.693 106.387 7.62866 106.387Z" fill="#067CC1"/>
<path d="M18.8143 113.115C18.1342 113.115 17.5459 112.618 17.454 111.929C17.3437 111.175 17.8768 110.477 18.6305 110.376L39.8621 107.398C40.6158 107.287 41.3143 107.821 41.4154 108.574C41.5257 109.328 40.9926 110.026 40.239 110.128L19.0073 113.105C18.943 113.105 18.8787 113.115 18.8143 113.115Z" fill="#067CC1"/>
<g opacity="0.1">
<path d="M105.882 175.991C107.978 177.205 111.112 178.032 114.513 177.572C119.559 176.892 122.73 173.528 123.051 169.245C123.355 165.274 121.48 163.28 116.489 161.763C110.441 160.146 106.857 157.067 107.307 151.083C107.812 144.466 113.116 138.877 120.542 137.876C124.458 137.352 127.215 137.977 128.833 138.822L127.132 143.482C125.947 142.894 123.483 141.975 120.028 142.444C114.816 143.142 112.564 146.883 112.344 149.787C112.04 153.758 114.219 155.403 119.32 156.956C125.57 158.859 128.603 161.883 128.125 168.133C127.629 174.686 122.831 180.955 113.814 182.168C110.129 182.664 106.195 182.012 104.265 180.771L105.882 175.991Z" fill="#05283D"/>
<path d="M170.34 152.462C169.228 167.094 160.652 175.927 150.901 177.232C140.809 178.592 134.384 170.844 135.358 157.977C136.379 144.484 144.586 134.64 154.798 133.271C165.22 131.874 171.296 139.852 170.34 152.462ZM140.634 157.149C139.945 166.23 143.75 173.767 151.516 172.719C159.338 171.662 164.366 163.059 165.101 153.418C165.744 144.971 162.445 136.671 154.219 137.784C146.066 138.877 141.342 147.82 140.634 157.149Z" fill="#05283D"/>
<path d="M212.013 146.855C210.901 161.488 202.325 170.32 192.573 171.626C182.482 172.986 176.057 165.238 177.031 152.37C178.051 138.877 186.259 129.034 196.47 127.664C206.893 126.258 212.969 134.236 212.013 146.855ZM182.307 151.534C181.618 160.614 185.423 168.151 193.189 167.103C201.011 166.046 206.039 157.444 206.774 147.802C207.417 139.355 204.118 131.056 195.891 132.168C187.73 133.271 183.015 142.205 182.307 151.534Z" fill="#05283D"/>
<path d="M219.237 167.352L222.454 124.852L227.84 124.126L238.456 143.978C240.91 148.574 242.785 152.756 244.274 156.864L244.393 156.791C244.366 151.175 244.651 146.019 245.147 139.401L246.498 121.616L251.149 120.991L247.932 163.491L242.941 164.162L232.445 144.227C230.138 139.861 227.959 135.348 226.379 131.001L226.204 131.083C226.084 136.405 225.809 141.497 225.276 148.556L223.897 166.717L219.237 167.352Z" fill="#05283D"/>
</g>
<path d="M103.796 173.905C105.891 175.118 109.026 175.945 112.426 175.486C117.472 174.806 120.643 171.442 120.965 167.159C121.268 163.188 119.393 161.194 114.402 159.677C108.355 158.059 104.77 154.98 105.22 148.997C105.726 142.379 111.029 136.791 118.456 135.789C122.371 135.265 125.129 135.89 126.746 136.736L125.046 141.396C123.86 140.808 121.397 139.888 117.941 140.357C112.73 141.056 110.478 144.797 110.257 147.701C109.954 151.672 112.132 153.317 117.233 154.87C123.483 156.773 126.516 159.797 126.039 166.047C125.542 172.6 120.744 178.868 111.728 180.081C108.042 180.578 104.108 179.925 102.178 178.684L103.796 173.905Z" fill="white"/>
<path d="M168.244 150.367C167.132 164.999 158.557 173.832 148.805 175.137C138.713 176.497 132.289 168.749 133.263 155.881C134.283 142.389 142.491 132.545 152.702 131.175C163.134 129.778 169.2 137.756 168.244 150.367ZM138.539 155.054C137.849 164.135 141.654 171.672 149.421 170.624C157.243 169.567 162.27 160.964 163.005 151.323C163.649 142.876 160.349 134.576 152.123 135.688C143.971 136.791 139.246 145.725 138.539 155.054Z" fill="white"/>
<path d="M209.917 144.76C208.805 159.392 200.23 168.225 190.478 169.53C180.386 170.891 173.961 163.142 174.936 150.275C175.956 136.782 184.164 126.938 194.375 125.569C204.798 124.163 210.873 132.15 209.917 144.76ZM180.211 149.448C179.522 158.528 183.327 166.065 191.094 165.017C198.915 163.96 203.943 155.357 204.678 145.716C205.322 137.269 202.022 128.97 193.796 130.082C185.643 131.176 180.919 140.109 180.211 149.448Z" fill="white"/>
<path d="M217.151 165.256L220.368 122.756L225.754 122.03L236.369 141.883C238.823 146.479 240.698 150.661 242.187 154.769L242.307 154.696C242.279 149.08 242.564 143.924 243.061 137.306L244.412 119.521L249.062 118.896L245.846 161.396L240.855 162.067L230.358 142.131C228.051 137.766 225.873 133.253 224.292 128.905L224.118 128.988C223.998 134.31 223.722 139.402 223.189 146.46L221.811 164.622L217.151 165.256Z" fill="white"/>
<g opacity="0.2">
<path d="M109.127 113.905C107.426 115.072 104.062 116.479 99.8161 117.085C89.9723 118.51 82.8859 112.637 83.4834 99.8517C84.0532 87.6458 91.8565 78.3076 102.693 76.7359C107.05 76.1109 109.743 76.7543 110.901 77.269L109.623 81.5337C107.959 80.8535 105.551 80.5134 102.647 80.9362C94.4576 82.1219 88.7407 88.7487 88.2628 98.9877C87.8124 108.528 92.4448 113.951 100.947 112.719C103.695 112.324 106.526 111.276 108.382 110.036L109.127 113.905Z" stroke="#05283D" stroke-width="0.919118" stroke-linecap="round" stroke-linejoin="round"/>
<path d="M145.772 90.109C145.138 103.528 137.5 111.699 128.584 112.986C119.356 114.319 113.254 107.278 113.814 95.4767C114.393 83.0962 121.673 74.0061 131.002 72.655C140.533 71.2671 146.314 78.5374 145.772 90.109ZM118.63 94.6587C118.235 102.986 121.93 109.87 129.035 108.841C136.186 107.811 140.579 99.8793 140.993 91.0282C141.36 83.28 138.106 75.7065 130.597 76.791C123.125 77.8664 119.035 86.1017 118.63 94.6587Z" stroke="#05283D" stroke-width="0.919118" stroke-linecap="round" stroke-linejoin="round"/>
<path d="M182.923 87.4896C182.923 82.0944 182.914 75.5963 183.199 70.7341L183.042 70.7525C181.636 75.4951 179.954 80.5595 177.941 86.1937L170.882 106.001L167.463 106.497L162.684 88.7488C161.287 83.4915 160.119 78.6661 159.357 74.1808L159.256 74.1992C158.925 79.0705 158.355 85.6514 157.767 91.5337L156.048 108.381L151.746 109.006L156.02 69.6679L161.774 68.8315L166.847 86.8279C168.07 91.4143 169.063 95.5227 169.752 99.4474L169.908 99.429C170.974 95.3665 172.417 90.9088 174.21 85.7709L181.314 66.0099L187.068 65.1735L187.408 103.85L183.006 104.484L182.923 87.4896Z" stroke="#05283D" stroke-width="0.919118" stroke-linecap="round" stroke-linejoin="round"/>
<path d="M202.932 62.8845L201.094 101.873L196.581 102.526L198.419 63.5371L202.932 62.8845Z" stroke="#05283D" stroke-width="0.919118" stroke-linecap="round" stroke-linejoin="round"/>
<path d="M211.029 100.431L212.868 61.4418L217.794 60.7249L228.061 78.8315C230.441 83.0319 232.27 86.8462 233.741 90.5962L233.851 90.5227C233.676 85.3757 233.796 80.6514 234.09 74.576L234.853 58.2617L239.099 57.6459L237.261 96.6348L232.702 97.2966L222.546 79.1165C220.312 75.1275 218.189 71.0098 216.627 67.0484L216.47 67.1312C216.498 72.0117 216.379 76.6808 216.075 83.1606L215.294 99.815L211.029 100.431Z" stroke="#05283D" stroke-width="0.919118" stroke-linecap="round" stroke-linejoin="round"/>
<path d="M274.053 89.6036C271.994 90.7065 267.941 92.6091 263.226 93.2984C257.941 94.0613 253.658 93.1882 250.404 90.0356C247.546 87.2323 245.928 82.2966 246.213 76.2212C246.811 64.5852 254.366 55.054 266.075 53.3536C270.119 52.7654 273.235 53.2984 274.697 53.8867L273.419 58.1514C271.599 57.4988 269.301 57.076 265.772 57.5907C257.27 58.8223 251.452 65.5227 250.993 75.2929C250.524 85.1826 255.588 90.2562 263.732 89.0797C266.682 88.6569 268.732 87.894 269.789 87.1679L270.331 75.5411L263.226 76.5705L263.419 72.5172L274.926 70.8536L274.053 89.6036Z" stroke="#05283D" stroke-width="0.919118" stroke-linecap="round" stroke-linejoin="round"/>
<path d="M105.836 112.251C104.136 113.418 100.772 114.824 96.5256 115.431C86.6818 116.855 79.5954 110.982 80.1928 98.1973C80.7627 85.9914 88.566 76.6531 99.4024 75.0815C103.759 74.4565 106.452 75.0998 107.61 75.6145L106.333 79.8793C104.669 79.1991 102.261 78.859 99.3565 79.2818C91.1671 80.4675 85.4502 87.0943 84.9723 97.3333C84.5219 106.874 89.1542 112.297 97.6561 111.065C100.404 110.67 103.235 109.622 105.092 108.381L105.836 112.251Z" fill="#05283D"/>
<path d="M142.472 88.4546C141.838 101.874 134.2 110.045 125.285 111.331C116.057 112.664 109.954 105.624 110.515 93.8223C111.094 81.4418 118.373 72.3517 127.702 71.0006C137.233 69.6219 143.015 76.8921 142.472 88.4546ZM115.34 93.0135C114.945 101.341 118.64 108.225 125.744 107.195C132.895 106.166 137.289 98.2341 137.702 89.3829C138.07 81.6348 134.816 74.0613 127.307 75.1458C119.834 76.2212 115.744 84.4565 115.34 93.0135Z" fill="#05283D"/>
<path d="M179.623 85.8444C179.623 80.4491 179.614 73.951 179.899 69.0889L179.742 69.1072C178.336 73.8499 176.654 78.9142 174.641 84.5484L167.583 104.355L164.163 104.852L159.384 87.1036C157.987 81.8462 156.82 77.0208 156.057 72.5355L155.956 72.5539C155.625 77.4253 155.055 84.0061 154.467 89.8885L152.748 106.736L148.447 107.361L152.72 68.0227L158.474 67.1863L163.548 85.1826C164.77 89.769 165.763 93.8775 166.452 97.8021L166.608 97.7837C167.674 93.7212 169.117 89.2635 170.91 84.1256L178.015 64.3646L183.768 63.5282L184.108 102.205L179.706 102.839L179.623 85.8444Z" fill="#05283D"/>
<path d="M199.641 61.2305L197.803 100.219L193.29 100.872L195.129 61.883L199.641 61.2305Z" fill="#05283D"/>
<path d="M207.739 98.7855L209.577 59.7966L214.503 59.0797L224.77 77.1863C227.151 81.3866 228.98 85.201 230.45 88.951L230.56 88.8774C230.386 83.7304 230.505 79.0061 230.799 72.9308L231.562 56.6164L235.809 56.0006L233.97 94.9896L229.412 95.6514L219.255 77.4712C217.022 73.4822 214.899 69.3646 213.336 65.4032L213.18 65.4859C213.208 70.3664 213.088 75.0355 212.785 81.5153L212.003 98.1697L207.739 98.7855Z" fill="#05283D"/>
<path d="M270.763 87.9492C268.704 89.0521 264.651 90.9547 259.936 91.644C254.651 92.4069 250.368 91.5337 247.114 88.3812C244.255 85.5778 242.638 80.6422 242.923 74.5668C243.52 62.9308 251.075 53.3995 262.785 51.6992C266.829 51.1109 269.945 51.644 271.406 52.2323L270.129 56.497C268.309 55.8444 266.011 55.4216 262.481 55.9363C253.98 57.1679 248.162 63.8683 247.702 73.6385C247.233 83.5282 252.298 88.6017 260.441 87.4253C263.391 87.0025 265.441 86.2396 266.507 85.5135L267.05 73.8867L259.945 74.9161L260.138 70.8628L271.645 69.1992L270.763 87.9492Z" fill="#05283D"/>
</g>
<path d="M105.331 110.109C103.63 111.276 100.266 112.682 96.02 113.289C86.1762 114.714 79.0898 108.841 79.6872 96.0557C80.2571 83.8498 88.0604 74.5115 98.8968 72.9399C103.253 72.3149 105.946 72.9582 107.105 73.4729L105.827 77.7377C104.163 77.0575 101.755 76.7174 98.8508 77.1402C90.6615 78.3259 84.9446 84.9527 84.4666 95.1917C84.0163 104.732 88.6486 110.155 97.1505 108.923C99.8986 108.528 102.73 107.48 104.586 106.239L105.331 110.109Z" stroke="#067CC1" stroke-width="0.919118" stroke-linecap="round" stroke-linejoin="round"/>
<path d="M141.976 86.313C141.342 99.7322 133.704 107.903 124.788 109.19C115.56 110.523 109.457 103.482 110.018 91.6807C110.597 79.3002 117.877 70.2101 127.206 68.859C136.737 67.4711 142.518 74.7413 141.976 86.313ZM114.834 90.8627C114.439 99.1899 118.134 106.074 125.239 105.045C132.389 104.015 136.783 96.0833 137.196 87.2322C137.564 79.484 134.31 71.9105 126.801 72.995C119.329 74.0704 115.239 82.3057 114.834 90.8627Z" stroke="#067CC1" stroke-width="0.919118" stroke-linecap="round" stroke-linejoin="round"/>
<path d="M179.127 83.6936C179.127 78.2984 179.117 71.8002 179.402 66.9381L179.246 66.9565C177.84 71.6991 176.158 76.7635 174.145 82.3977L167.086 102.205L163.667 102.701L158.888 84.9528C157.491 79.6955 156.323 74.8701 155.56 70.3848L155.459 70.4032C155.129 75.2745 154.559 81.8554 153.97 87.7377L152.252 104.585L147.95 105.21L152.224 65.8719L157.978 65.0355L163.051 83.0319C164.274 87.6182 165.266 91.7267 165.956 95.6513L166.112 95.633C167.178 91.5705 168.621 87.1127 170.413 81.9749L177.518 62.2138L183.272 61.3774L183.612 100.054L179.209 100.688L179.127 83.6936Z" stroke="#067CC1" stroke-width="0.919118" stroke-linecap="round" stroke-linejoin="round"/>
<path d="M199.136 59.0889L197.298 98.0778L192.785 98.7304L194.623 59.7414L199.136 59.0889Z" stroke="#067CC1" stroke-width="0.919118" stroke-linecap="round" stroke-linejoin="round"/>
<path d="M207.233 96.6348L209.071 57.6458L213.998 56.9289L224.264 75.0355C226.645 79.2359 228.474 83.0502 229.945 86.8002L230.055 86.7267C229.88 81.5796 230 76.8554 230.294 70.78L231.057 54.4657L235.303 53.8499L233.465 92.8388L228.906 93.5006L218.75 75.3204C216.516 71.3315 214.393 67.2138 212.831 63.2524L212.674 63.3352C212.702 68.2157 212.582 72.8848 212.279 79.3646L211.498 96.019L207.233 96.6348Z" stroke="#067CC1" stroke-width="0.919118" stroke-linecap="round" stroke-linejoin="round"/>
<path d="M270.257 85.8076C268.198 86.9105 264.145 88.8131 259.43 89.5024C254.145 90.2653 249.862 89.3921 246.608 86.2396C243.75 83.4362 242.132 78.5006 242.417 72.4252C243.014 60.7892 250.57 51.2579 262.279 49.5576C266.323 48.9693 269.439 49.5024 270.9 50.0907L269.623 54.3554C267.803 53.7028 265.505 53.28 261.976 53.7947C253.474 55.0263 247.656 61.7267 247.196 71.4969C246.728 81.3866 251.792 86.4601 259.935 85.2837C262.886 84.8609 264.935 84.098 266.002 83.3719L266.544 71.7451L259.439 72.7745L259.632 68.7212L271.139 67.0576L270.257 85.8076Z" stroke="#067CC1" stroke-width="0.919118" stroke-linecap="round" stroke-linejoin="round"/>
<path d="M102.04 108.455C100.34 109.622 96.976 111.028 92.7297 111.635C82.8859 113.06 75.7995 107.187 76.3969 94.4016C76.9668 82.1957 84.7701 72.8575 95.6065 71.2858C99.9631 70.6608 102.656 71.3042 103.814 71.8189L102.537 76.0836C100.873 75.4035 98.465 75.0634 95.5606 75.4862C87.3712 76.6718 81.6543 83.2987 81.1764 93.5376C80.726 103.078 85.3583 108.501 93.8602 107.269C96.6083 106.874 99.4392 105.826 101.296 104.585L102.04 108.455Z" fill="white"/>
<path d="M138.676 84.659C138.042 98.0781 130.404 106.249 121.489 107.536C112.261 108.869 106.158 101.828 106.719 90.0266C107.298 77.6461 114.577 68.556 123.906 67.2049C133.438 65.8263 139.219 73.0965 138.676 84.659ZM111.544 89.2178C111.149 97.545 114.844 104.429 121.949 103.4C129.099 102.37 133.493 94.4384 133.906 85.5873C134.274 77.8391 131.02 70.2656 123.511 71.3502C116.039 72.4255 111.949 80.6608 111.544 89.2178Z" fill="white"/>
<path d="M175.827 82.0485C175.827 76.6533 175.818 70.1551 176.103 65.293L175.947 65.3113C174.54 70.054 172.858 75.1183 170.845 80.7525L163.787 100.56L160.368 101.056L155.588 83.3077C154.191 78.0503 153.024 73.2249 152.261 68.7396L152.16 68.758C151.829 73.6294 151.259 80.2102 150.671 86.0926L148.952 102.94L144.651 103.565L148.925 64.2268L154.678 63.3904L159.752 81.3867C160.974 85.9731 161.967 90.0816 162.656 94.0062L162.812 93.9878C163.879 89.9253 165.322 85.4676 167.114 80.3297L174.219 60.5687L179.972 59.7323L180.312 98.4088L175.91 99.043L175.827 82.0485Z" fill="white"/>
<path d="M195.845 57.444L194.007 96.4329L189.494 97.0855L191.333 58.0965L195.845 57.444Z" fill="white"/>
<path d="M203.943 94.9899L205.781 56.0009L210.708 55.284L220.974 73.3906C223.355 77.591 225.184 81.4053 226.654 85.1553L226.765 85.0818C226.59 79.9347 226.709 75.2105 227.004 69.1351L227.766 52.8208L232.013 52.205L230.174 91.1939L225.616 91.8557L215.459 73.6755C213.226 69.6866 211.103 65.5689 209.54 61.6075L209.384 61.6902C209.412 66.5708 209.292 71.2399 208.989 77.7197L208.208 94.3741L203.943 94.9899Z" fill="white"/>
<path d="M266.967 84.1535C264.908 85.2565 260.855 87.159 256.14 87.8484C250.855 88.6112 246.572 87.7381 243.318 84.5855C240.459 81.7822 238.842 76.8465 239.127 70.7712C239.724 59.1351 247.279 49.6039 258.989 47.9035C263.033 47.3153 266.149 47.8484 267.61 48.4366L266.333 52.7013C264.513 52.0487 262.215 51.6259 258.686 52.1406C250.184 53.3723 244.366 60.0726 243.906 69.8429C243.437 79.7326 248.502 84.8061 256.645 83.6296C259.596 83.2068 261.645 82.444 262.711 81.7179L263.254 70.091L256.149 71.1204L256.342 67.0671L267.849 65.4035L266.967 84.1535Z" fill="white"/>
</g>
<defs>
<clipPath id="clip0_117_7107">
<rect width="346.507" height="250" fill="white"/>
</clipPath>
</defs>
</svg>
