<svg width="47" height="51" viewBox="0 0 47 51" fill="none" xmlns="http://www.w3.org/2000/svg">
<path fill-rule="evenodd" clip-rule="evenodd" d="M21.2342 0C29.6588 0 36.5299 6.87112 36.5299 15.2957C36.5299 18.4826 35.5456 21.4488 33.8665 23.9026C31.7429 27.0055 28.3109 29.7347 28.3109 33.6143V38.2423H14.1565V33.6143C14.1565 29.7347 10.7245 27.0055 8.60088 23.9026C6.92184 21.4478 5.9375 18.4826 5.9375 15.2957C5.9375 6.87112 12.8096 0 21.2342 0Z" fill="#143C68"/>
<path fill-rule="evenodd" clip-rule="evenodd" d="M14.1582 40.394V42.5399H28.3126V40.394H14.1582ZM24.9565 46.8297C24.9565 48.8794 23.2846 50.5513 21.2349 50.5513C19.1852 50.5513 17.5143 48.8794 17.5143 46.8297H14.1582V44.6848H28.3126V46.8297H24.9565Z" fill="#143C68"/>
<path d="M43.2277 13.9911C43.2277 14.6058 43.726 15.1051 44.3417 15.1051C44.9574 15.1051 45.4557 14.6068 45.4557 13.9911V6.56709C45.4557 6.49721 45.4486 6.42835 45.4364 6.36252C45.4364 6.35847 45.4364 6.35543 45.4344 6.35138C45.4212 6.28455 45.402 6.21973 45.3767 6.15796C45.3746 6.1529 45.3736 6.14884 45.3716 6.14378C45.3453 6.07998 45.3129 6.01922 45.2764 5.96251C45.2744 5.95846 45.2724 5.95542 45.2693 5.95137C45.1873 5.82782 45.081 5.72149 44.9574 5.63946C44.9534 5.63642 44.9493 5.6344 44.9453 5.63237C44.8886 5.59591 44.8278 5.56351 44.764 5.53718C44.7589 5.53515 44.7549 5.53414 44.7498 5.53212C44.688 5.50781 44.6232 5.48756 44.5564 5.47439C44.5523 5.47439 44.5493 5.47439 44.5453 5.47237C44.4784 5.46021 44.4106 5.45312 44.3407 5.45312H36.9166C36.3019 5.45312 35.8027 5.95137 35.8027 6.56709C35.8027 7.1828 36.3009 7.68105 36.9166 7.68105H41.652L28.6217 20.6698C28.3057 20.9858 27.7275 21.0121 27.3832 20.7255L19.0993 13.822C17.8821 12.8083 15.9802 12.8944 14.8612 14.0144L1.32659 27.5491C0.891136 27.9835 0.891136 28.6893 1.32659 29.1238C1.54432 29.3415 1.82889 29.4499 2.11345 29.4499C2.39802 29.4499 2.6836 29.3415 2.90032 29.1238L16.436 15.5881C16.7519 15.2722 17.3302 15.2459 17.6745 15.5324L25.9583 22.436C27.1756 23.4497 29.0764 23.3636 30.1964 22.2436L43.2267 9.25477V13.9901L43.2277 13.9911Z" fill="#3BC4B6" stroke="#3BC4B6" stroke-width="1.33325" stroke-miterlimit="10"/>
</svg>
